/* XPM */
static char * CEILING_xpm[] = {
"64 64 14 1",
" 	c #170F0B",
".	c #231307",
"+	c #4B2313",
"@	c #2F170B",
"#	c #3B1F0F",
"$	c #0F0B07",
"%	c #572B17",
"&	c #47331B",
"*	c #632F1F",
"=	c #1F170B",
"-	c #070700",
";	c #2B230F",
">	c #372B13",
",	c #271B0F",
" .++.@@@.@.@#@#.$.@@.@..@##@.#.. #++#@+@#@.#.@#.$.@.....@@.@..@@",
"..+#@@@@.@.#@@#.$.+######%+@#@@. #++#@+@#@@#@##.$.+@@@###+##@##%",
"..+#@@@@.@.+@@+.$.+#@#@@#+#@@#@. @++#@#@#@@#.##.$@+...@@#+@@..+%",
"..+#@@@@#@.#@@#.$@+..#@@#%#..%@. @+#@.#@#@##.+#.$.+.&.#@#+@@.&+%",
"..+#@.@@#..@@@+.$@+.&#@##+#.&%@. @++@.#@#.##.++.$.+...###+@@@@#%",
"..+#@.@+#..@@@+.$.+@##@##+#@#%@. @++@##@#.#@@++@$.+.@.##+#@@@@+%",
"..+#@.@%#..@@@%.$@+@##@##+#.+*@. @+#@##@#.@@#+@. @+.@.#++#@#@@++",
"..+##..+#..@@#%@$@+@##@##+#.%*@. @%+@##@#.@.++%# .+.@.#++#@#@@#+",
"..+##..##@@@##%@$@+@##@##+#.%%@. @%+@+@@#.@.+++@ @+.@@#++#.#@@#%",
"..+##..@+@@@##%@$.#@##@##+#@%+@. @+#@+@@#.@@%+%@.@+.@@#++#.#@@#+",
".@+##..@%@@@##%@$..@@@@##+#@%+@= @+###@@#.@#%+*@$@+@@@#++#.#@@#+",
".@+#+@..%@@.##%@$@.@@@@##+@@+@@  @+@#+@@#.@#%+*@$@+@@@#++#.#@@@#",
".@+#+@..%@@.##%@$.@.@@@#@+@@+@@$ #%@#%@@#.@#%+*@$@+@@@#++#.#@@@#",
".@+@+@@.+#@.#++@$.@@.@@#@+@@#@@  @%#++@@#.@#++%@$.+@@@#++#.+##@#",
".@+@+@@.#+@.#+%@ .#.@@@#@+@@+@@= @%#+%@@#.#+#+%@$.+@###++#.+##@#",
".@%@%@#.#+..#+%@ @#.@@@#@+@@+@@. @%#+%@@@@#%#+#@$.+@###+#@.+##@#",
".@%#+@+.@#..@+#@ @#.@@@#@#.@#@@@ @%#++@@@@#%##@@$.+@###+#@@++#@@",
".#%@+@+@@+..@%#@ @#.@.@#@#.@#@@@ @*##+@@@.#+@+#@-.+@###+#@#+%#@@",
".#%##@#@@%..@%#@ @+.@.##@#@##@#@$@+##%@@.#+#@++@$.+####+#@#+%#@@",
".#+@##@#.%..@%#@ .+.@.##@#.@#@+@$.+##+@.#@+#@+#@-@+###++#.#+%#@@",
".#+##+@#.+..@%#@ $@.@.##@#.@#@%@$.+###.@.@+#@+#@-@+###%+#.#+%#..",
".#+##%@+.+@.@+#@ .+.@.##@@.##@%@$.+##@@@.#+#@+@.-#+###++#@#+%#..",
".##+#*@+.+@.@+#@$@#.@.##@@.##@+.$.+####@.#+@.+@.-#%##@%+#@##+#..",
".@++#%@@.#@.@+#.$@#.@@##.@.#@@#.$.+##@#@.#+@.+@.$#%##.+##@##+#..",
".#+##*@.@@#.@##.$@#.@@##.@.##.@=$.+#@@+@.#+@@+@.$#%##.+#@.@###..",
".#++@*#@#@+..@#.$@#@@###.@.+.#.$$.+#@@+@.##.@+@.$#%##.+#@..###..",
".#++@%%##@+..@@. @+#@###.@.+.@#.-.+#@@#@.##.@+@.$#%##.+#@..###..",
".#++@%+%@@+..@@. @+#.#+#...+.@#.-.++@#@#.+#.@@..$#%##.+#@..###@.",
".#++@+#%@.+..@@. @+#.#+#...#.@#.-.%+@#.#.##.@+@. #+#@.##@..###@.",
" +##@#++@.+...@. @+#.#+#...#.@+.-.%#@#.#@#@..#.@ #+@@.##@..@@##.",
" +#;@#+#@.+..>@. @##.#+#...#.@+.-.%#&@.#@@@.>@.@.@+@@@##@..@@##.",
" #+#@++#@.+@.@@..@#@.#+#...#.@+.-@%%@..##.@,.#.@.@+.@@##@..@@##.",
".@@@.@@@..@......@@#.#+#...#.@%.$.#@....@@.......@+.@@##...@@@#.",
".++##+#+#@##@#.#.@#@.@%#...#.@%@$@#+#@##+##@#@@..@+.@@##...@@@#.",
".+@@##@+@....@.#.@#@.@%#@..#.@*@$#+#..@@+#@@.....@+.#@##...@@@#.",
".+@&##@+#...;@.#.@+#.@%#@..#.#*@$#%#>.@#+@@.;....@+.####...@@@#.",
".#+@##.+#.@+.@.@.@+#.@+#@..#.#%@$#%#@@@#%@@@..@..@+.####....#.#.",
".#+@#@.##.@+@@.@.@+#.@%#@@.#@##.$#%##@@#+@@##....@+@####...##.#.",
".++@+@.##.@+@@....+#.@+#@@.#@#+@$#%#@.@#@..@+....@+####+...@@.@.",
".++@+..#+@@+@.@..@@#..%#@..#@##.$#%#@.@#@..@#.@..@+####+...#@...",
".+%@+..#+@.+@.@..@@...+#@..#@##.$#+#..@#@#.#@.@..@+#+#@%.@@#@@..",
".#%.+..#+@.+@.@..@+#@.##@..@@+@. +%#..@#@+.+@.@..@+#+#@+.#@#@@..",
".#%.#..#+#@+@....@+#..##@.#@@%@. +%@..@@@+.+@.@..@+#++@+.#@@##..",
".#%.#@.@+#@##....@+#..##@.@@#%.. +%@.@.@@#.+..@..@+#++@+@#@@##@.",
".#*.@@.@+#@##... @+#..##@..@#%.= #%@.#.@@#.%..@. @+#++@#@#@###@@",
".#*@@@.@+#@#+... @+@..###@.@#+.= #%..#@@#@@%..@. @+#++@#@#@####@",
".#*@@#.@#+@#+... @+@@.###@.@+#.= ++..##@+@@+.... @##+#@#@@##++#@",
".#*@.#@@#+##+@.. @+@@.#+#@.@+#@$ +#@@#+#+.@#..@. @##+#@#@@##+++@",
" @*#@+@@#+##+@..$@+@@.#%#...%@@$ #@.##+##.##..#@ @####@#@#+#+++@",
" @*#.##.#+##%@..$@###.#%#@@.%@#$.@.##++#@.##@.#. @##@#.#@#++##+@",
"$@*#.+#.@#+#%@..$@#@#.#+#@@@%.#$$.+@@++#@.+#@.#. @##.@.#@#++##+@",
"$.*#@+#.@#%#*#..$@+.+.@+##@@+.#$$#+@@++#..%@@.#. @+#.@@@@#++@#+@",
"$.#..+#.@#%#*#..$@+.+.@%##@##.#$$#+@#++@..%@@.#.$@+@.@.@@#%#.#+@",
"$..#.+#.@#%+*+..$@+.+.@%+#@##.#$$#+@#+#@.@%@@@#.$@+@..@@@#%#.#+@",
"$.##.+#.@@%+%+..$@+.#.@%%#@#@@#$$#+@#+@..@+@@@#.$@+@...@@#%#@#+@",
"$.%#.+#.@.++++..$@+.+@@+*#@+@@#$$#+.++@..##@@@#.$@+@...@@#%#+@+@",
" .%+.##.@.++++. $#%.#@@+*#@+@@#$$++.++@@.+#..@@.$@+#...@@#%@%@+@",
" .%+.##.@@#+++@ -@%.#@@+*#@%@## $++@+#@@@%#..@@.$@%#...@@#+.+@##",
"..++.@#.#@@+++@ -@%.#@.#%##%@## $#+@+#.#@+#..@@.$.%#...@##+.#@#+",
"..++.@#.##.++#@ -@%@##.#%##%@+#$$#+#++.#@@#..@@.$.%#...@##+.@@#+",
"..++.@#@##.+##@ -.%###.#+%+%@@#$ #+#++.#@@#@.#@.$.%#...@##+.@@#+",
"..++.@#@@#.###@ $.%..+.@#%++..@  #+#+#.#@@.@.+@.$.+@..@@###@..#%",
"..++.@#@@#@###@ -.+.&%@@#%%+.&@. #+#+#.@@@.@.#@.$.+..&@@#+#+.&+%",
"..+#.@#@.#.@#@@.$.+#@%.@#%*#@%@. #++##.@@@.@.@#. .+...@@#+#%.@++"};
