/* XPM */
static char *b170dd3705404bc3bc35658f9f4bf865JGsuBtwRe23K7Vu1[] = {
/* columns rows colors chars-per-pixel */
"64 64 65 1 ",
"  c #934D2A",
". c #AA5A39",
"X c #8E4B34",
"o c #944926",
"O c #994D28",
"+ c #894828",
"@ c #682E18",
"# c #8F4B29",
"$ c #AE5D3A",
"% c #9D4F2B",
"& c #9B532E",
"* c #A35940",
"= c #8F4522",
"- c #A1553A",
"; c #9B553D",
": c #844526",
"> c #7B3E27",
", c #964F2C",
"< c #934F37",
"1 c #A65737",
"2 c #984A26",
"3 c #6E331A",
"4 c #7D4329",
"5 c #68351F",
"6 c #8A4224",
"7 c #A2522C",
"8 c #A35531",
"9 c #9A5036",
"0 c #4C2B1C",
"q c #5A2B19",
"w c #8F4725",
"e c #281D14",
"r c #754128",
"t c #9F5234",
"y c #7D3A21",
"u c #713D25",
"i c #533120",
"p c #7A381F",
"a c #843D20",
"s c #4B2315",
"d c #582615",
"f c #312217",
"g c #3B291C",
"h c #864730",
"j c #844B35",
"k c #713822",
"l c #834124",
"z c #A75E44",
"x c #653B26",
"c c #92543E",
"v c #5C301D",
"b c #5C3623",
"n c #24180F",
"m c #1B140D",
"M c #7D4730",
"N c #77331A",
"B c #B16241",
"V c #3D2215",
"C c #463224",
"Z c #3B1B0F",
"A c #523A2B",
"S c #9B5943",
"D c #110E08",
"F c #694330",
"G c #88503B",
/* pixels */
"ZZVsss0sVsqqqqqdsqqqqqq0dqqqds0sVsdqqdss00qv00ss00iiiis0iivvv0ss",
"s0rr4jjMbuXhhhM45hMhXjj4u<XXhhh5bhXhhh45MhX<X<uFGjGGcckGGcGGcjxd",
"sbMMhj<Gu4tX4MhXy<XhX<;X>--Xj9*ux<9X<<Xk<<jjX;4jScGGcS>cccGccGFd",
"sbjMCAjcrh-MCAhX>9<xAM*Xl*9xAjzuu<MAF<X>zcFAj;hjzGAFcS>cSjAFccbd",
"ZgGjibjjuX-jixhh>;;rbj*<l;;FbXzur;MAx<X>B;rFG;hjzcFMSS>cSGFjSGVd",
"ZgGGjjFCC49XXXXX>;c;99*<>9;;;*z>4;9<XXhkzz**;*hjzSccS;FFFGSScjfs",
"ZfFMjrg00b+h,XXhpXX<<<;XkxM;zBB>4;;9jxx5Szz*;*hjzzSc<cbMAAcjjFes",
"ZDmebimVs5>>l6>>5hhhXX<>3bgj;*z>r<9XAgu5Xc;;<<44SSSGjhvrACriemms",
"nDDDmmDDnefffVfgf0000ii0VfmCj;Surc<uge0gCC00CCCCACgAAACCggCfmDns",
"ZDDDDmDDmnenmmneeenenfgffnmgMSSkr;XxfDefVgfefgCCCgfCACCCgggfDmVs",
"ZmDDggnfZ055kkk5vhhhX<<4qver**zkrS<XifqqXXXXXXkkXhXGGMvxAAxgDm0d",
"s0xxMFf000hX99<h>zB**zB-5bbGSzz>>S;c4ivv;S**zBX>;;***<i4xAhhrukd",
"d5<<cjiffvX<-.;X>BBzzBB*><;;***y>SSSc<XkS***BBX>;;***;bAAM99<<>d",
"dxcc;;<rqk<91.-<4zz**BB-6*-**zzpkSSSS;<k;**zBBX>--****5h<;c;;;4d",
"dxcc;S9;k499-1-<>zz**zB-l**z*z$pkcSSS;X3;**zBzh>***zz*kX;S;;;S4d",
"d5ccc;;;>h9<9-;<y***-*B-4****..p5G;S;;X3;*-**zh>-***zz>X;;;;;;4d",
"dxG<X<;9y6<X999Xk*z.-*Bt>--*.$.p3Gc;;S<3-**zzzX>*-*zzza<-<<X<;rd",
"sbGMAF<<p6<<-99Xk*.z*.B9>-t..$.p3<;;;-9N-1*.$$X>*-*zzBl9thxxX9>d",
"sbjM0iX<y6<<99tXp*z**.$Oy--1111N3<;---9Nt-1..$Xy11..zzl9-hCbX<>q",
"sxjGjG<<p69<9--9y1*-11.2pt.*1-1N@<t;--9ptt-1.$ >1...z$a919jX9;4@",
"sxjGc;c9p+99t-1tp.8t-1.oy-$.*--p@<----%ptt-..$9l.1.$.Bl,8t999;4@",
"sbGGc;c<p+99--1tp.7t81.2yt...11p3,t-t8%p%t8..$%l11...$aO1--;;;4@",
"VbjGc;<<pwtt--1ty..11..Oyt1.$.1yN,9-tt%p78...Bt6z....$l,8--t9&bd",
"ZbjMjXX<p --111ta$..$..oy8..$$1yN,98887p7...$Bt6z$$$.$lwt9t99tvs",
"VbjMAFj<pX--111tlB$.... l.11$$1aN 9888%y1.$..Bt6$$$$.$a=2#FF9tvd",
"VihrCAhXkXt--1-&>..11.1oa87t.18apo%t88%y1$$$$$tl.$$$..a6o+Axt7vd",
"ZiMjhh+Xk+9t-tt&y888777wa%o288%yp=2&77Oy8$.B$$t6..$$..a=o,<,88v@",
"VvhhX++#3:999t, y777%%7w6722t&,ay=ot7%2N7..$$$t61....8a=O9&818>N",
"sxMh+++j56%%OO##y%%%718oaOo 78%yy==O,,Op&1.$$$tl1.1187y6O&8.11+a",
"dxM:++hj5+% oo+6N2%O788wy=6w2O ypo=  ##p&81...9a8t1887>6&1..1.wa",
"dxM:::FAb4ow=6a63=2O%87=a2==6=oyp=o& ##N%8-111,at%8887rxxM.$$$wa",
"sirr4xgbix=aa666@=222%%wkr46a=wppwo&#4r@ &t888,y%,&&&,bxxf+8&<>N",
"ZVfgbifbqkllall>@6=oo2wakxg466wpy=w uCx@# %tttoN # , +55vnxrVe0N",
"Zemeffeefg000iiigiiiibbi00fb:=wNp664AgAiFFFxFFxibAiCC0VfnmfnDDVN",
"ZeeeeemnefffnefffffffggggfeC>=+kN66uAfgCAACgAAiCCCgfgggfemnDDDVN",
"Zeme0geg0xrr>4ruv:::+:63@uCuww:3N66lvfbq>ll6w6a@6l:+::55bgiinDVN",
"s00ikbgxix    +:3oo#  2y3xACi4+33:ugg0iq:ww22o=No %,,,k4MCM,Mr5N",
"qxur4rbCCr,, ,#+3owo ,Olp:gnng433ueDDVk@#o  O%2y,&&&&&rbFM8$B$oN",
"vxrr4:4r5+&&&  #kooo2%%6p5nnneq@@Vmmmnq@#%%&87%a&&&&81w:&1$BBB N",
"vxrr4:M:k#&&&< #pO22O&&=Ns5x5kZddZ3v5@Z@#87811%a&&&88$oO$B$BBB#p",
"vxur4MM:k#&,,  +yO222t%6Nsvrr5ZddZ5uu@V@ 18888%a,&&8&.2%BBB$$1:N",
"Viur44M:k+,<  #wpoo22%t=N@Veenq@qdnnnZ3@ 777872y,&&&&827B$$$.85q",
"ZiuuFF4:k#,  <#+po=22%7=ya5ffb>@3aqVV363 87787oy,&&&,&oOB*GG18vd",
"ZiuxCx4:k+ <  ,wp2o22%%=a6w::+:Nk6a666=3o7777%op,&&&&&wo$;AA,8bq",
"Viuuxr4:5+  ,,,wp2o22%7=a=ooow:3k=6==6=@=7777%2N &&&&&=o.8  &8bq",
"Ziuur44:5:     wp2222%%6ao2OOO+3@6=ww==3=%7777=N#&8&,&6=8888&&xq",
"d5urr44:5l#   #wpO2OO%%6a2O,O,w3@lwow==3=%%772=No&88&76=7787&,43",
"q5uur44:3l#####:p2O2%OO6a ,,,Oo3@6wow==3=%%O%2=Nw%&&&766%77%,,:3",
"q5uur4443l+++++lp22OO2Oay  ,,OoN36woo=w@=OO%22=3w ,&&7=6%%7&, l3",
"d5uuFrr43l::+++lN22O%22ay#  O2oN3=wow=w@=O2222=3+# ,,%6a%,jM+ l3",
"d5ubgbr:3>::::+l3oOO22oyy    owN3=owwww@=OOO2o=@+# ,,,6a% AC:#l@",
"d5uu5u::3>:++++l3o2OOOoay##  Oo33wooowo3wOOO2ow@+   ,,la%,+:# l@",
"dkrur:+:3>:++++l3#2OOO ay##   w33woo## 3oOOOO2w@+##   la%OO% ,l@",
"dkur44::3>l:+++>3#   O%lp##  ,#@3w#    3wO OO #3+###  >pO,O%,,:@",
"qkrr44445>:++::>3+##,,,ly##    @3##    @w, ,O o3+### #ypoOOO ,:@",
"dk>rrrxbv>:+++:r3+##,  lp### , 33 #,   @+,    #3+### #uvu4oo#ol@",
"d5ruubg00x:++::>3### ##>kr4+ , 33, ,#:uqw ####w@++++#w5qqVkll:kd",
"sVggb0fvdv>l:4>kq:++w++p@igr#  33,#w:0isaw6ww6aq:lllllqdqes3sVVs",
"ZnmnffefV0iivii0svvb555v00fbh #kk +:5f0d5555vvqs000000VenmeemDnZ",
"Zmneeeneeeeeneeeeeeeeeeefeegr #k3#wrCefg0geneeefnnmmnnnnmmmmmmmZ",
"mmneVVeVVs00qvv0svvvvv5vvigx+,#k3:+4bCisq@@@qqdZdssssssZZneZmmDn",
"neV0v0gv0vkku>ukv444:4:>5xAr+X#k3l6lkbbdNyyaayNdNNNN@@dd@g0@sZnn",
"ZV555bib05ku>>4>5444::M>kr4h+X+k3l6l>kkqpaa66ay@pNNpNNqsv0@NN@ZZ",
"ZVvvvqq0svv555k5vuurrrrkkuurr4455>>>>>u@ky>y>yp@33kk33q0v@3@@@Zs"
};
