/* XPM */
static char * FLOOR1_xpm[] = {
"64 64 15 1",
" 	c #070709",
".	c #0D0E11",
"+	c #111316",
"@	c #040306",
"#	c #0A0B0D",
"$	c #181A20",
"%	c #15161B",
"&	c #1B1C23",
"*	c #191A1F",
"=	c #111018",
"-	c #1F2229",
";	c #0D0F12",
">	c #1C1C2B",
",	c #131313",
"'	c #191723",
" .. ....++.@+  . . ..+. .+.#+ @..+$%+$$+++$+.++%  .  ..  @..   .",
".++++$$+%%$$%+.+%+++%&$..%%$%%..%$+.+++$+%%$++++.++.&+&%&&$$*&$+",
" $%++.+++%+%+.$$++++%++.+$+$%%%+%%%++$%%..%+%+++ %%%+$%+++$$%+%+",
" &+$++%++$++%++%+++%+%%.+$+...+.=+.$.++%.$$+%%++.%+$++%++$$+$$++",
" *%$%+%+%.$++.+%.+%%$+$+$+-+++%.%+%$+%$+$%%%$+%%.+%%%$++$%%+%+++",
".$$++%...+$%.+.%+$++%$+...%++%+.%%+%%+%+%+$$+%+&+$%+$+.%$+$%++.$",
".$$$%$$$.$..+%%+$%%$%$$$+$+++$+.%+.%+%%%+%$+$%+$.%.%++..+%$.%%+$",
"@&+$%+%$.+..+$$$+%.$%+%$+%.+%+++;+%%%%$%&$$.+... %+++&%%+$$.++++",
" &++$$++++.+++$+++..$%+&%%.+++%+=+$$+*+%%++.$++..+$++$+%+...%++%",
" %+++%.%%+.$+++++$%%++%%%+%$+%%+>%$$-+$+%%$.+$$%+%&+.+%+++$+.$%%",
".&%%+..%+%+$++.+$+%+$%%$+$++.$%+,%$$%++%..+%-++%.$%%%.+....$$++$",
".+$+$++&$+.$%%++$+$+%+%%*++$%*+.$*+-+$+$+++++.$$#%+%+$$$+..%++%$",
" &++%$+++.%+%%%++++.+%+%+-%+-%+.&+&+-%.++%+++.%%++%+%%+++++.+%+%",
" .%$%+%+++%%+&++%.+$$%%%$$$-+$&.'%&$%*$%++$%+.%% +$&%%+++$%+.+.+",
".+%+%%.+$&%+%$%.$+%.%+.%$$$+&&$.&%$&++%%%+++%+%.@$%+%+.+$$%.++$.",
" +%%+$%%+%$%++$.+$%++%+++%%*+%% , ....++++....+....++++++$+%%%$+",
"    .#. # #  . + .. ....++.@+  . . ..+. .+.#+ @..+$%+$$+++$+.++%",
"...++$%%.+$$$$+..++++$$+%%$$%+.+%+++%&$..%%$%%...$+.+++$+%%$++++",
".++&%+..%$+$$%%+.$%++.+++%+%+.$$++++%++.+$+$%%%+.%%++$%%..%+%+++",
" .+%.$%.+$+.+$$+ &+$++%++$++%++%+++%+%%.+$+...+..+.$.++%.$$+%%++",
".%+%%.$%%+-+.%%..*%$%+%+%.$++.+%.+%%$+$+$+-+++%. +%$+%$+$%%%$+%%",
".%+..$++..%++%+..$$++%...+$%.+.%+$++%$+...%++%+..%+%%+%+%+$$+%+&",
".$%%$+%+.++++$&+.$$$%$$$.$..+%%+$%%$%$$$+$+++$+..+.%+%%%+%$+$%+$",
".%+$%.+$+++%+++%.&+$%+%$.+..+$$$+%.$%+%$+%.+%+++++%%%%$%&$$.+...",
"+...$+.$++%+++%++&++$$++++.+++$+++..$%+&%%.+++%+.+$$+*+%%++.$++.",
"++%%++..+$$$+++.+%+++%.%%+.$+++++$%%++%%%+%$+%%+.%$$-+$+%%$.+$$%",
".+%+%.+.+%+%+-%$.&%%+..%+%+$++.+$+%+$%%$+$++.$%+.%$$%++%..+%-++%",
"@+%+%.%$$++$%%++@+$+$++&$+.$%%++$+$+%+%%*++$%*+.#*+-+$+$+++++.$$",
"+++$%.+%+%%+%%%.+&++%$+++.%+%%%++++.+%+%+-%+-%+.++&+-%.++%+++.%%",
" .%$.%%+$$$+ &$+ .%$%+%+++%%+&++%.+$$%%%$$$-+$&. %&$%*$%++$%+.%%",
" +$+%+%.$%$++$%. +%+%%.+$&%+%$%.$+%.%+.%$$$+&&$. %$&++%%%+++%+%.",
".$+..$.%++++.+%..+%%+$%%+%$%++$.+$%++%+++%%*+%% . ....++++....+.",
" .%+++$.++$$++++  .  ..  @..   . .. ....++.@+  . . ..+. .+.#+ @.",
" $+.++++.%$%%.+. ++.&+&%&&$$*&$+.++++$$+%%$$%+.+%+++%&$..%%$%%..",
" +$%+%%%.+%++++. %%%+$%+++$$%+%+.$%++.+++%+%+.$$++++%++.+$+$%%%+",
" .+$$++%.$%.%%&+ %+$++%++$$+$$++ &+$++%++$++%++%+++%+%%.+$+...+.",
"..%.%%%+$%$.%.%+.+%%%$++$%%+%+++.*%$%+%+%.$++.+%.+%%$+$+$+-+++%.",
"#$+%...++.+$.$+$#$%+$+.%$+$%++.$.$$++%...+$%.+.%+$++%$+...%++%+.",
"..%%+%+..+%+$%.%.%.%++..+%$.%%+$.$$$%$$$.$..+%%+$%%$%$$$+$+++$+.",
" %.+%$..$$++%..% %+++&%%+$$.++++.&+$%+%$.+..+$$$+%.$%+%$+%.+%+++",
"#+$$+$++++..%+%.#+$++$+%+...%++%+&++$$++++.+++$+++..$%+&%%.+++%+",
" +%$%+%$+++.+$$+ %&+.+%+++$+.$%%+%+++%.%%+.$+++++$%%++%%%+%$+%%+",
"#+$$%++$%++%-++$#$%%%.+....$$++$.&%%+..%+%+$++.+$+%+$%%$+$++.$%+",
" ++++$%$+%+++.$$ %+%+$$$+..%++%$@+$+$++&$+.$%%++$+$+%+%%*++$%*+.",
" .+ %%++++++.+$$ +%+%%+++++.+%+%+&++%$+++.%+%%%++++.+%+%+-%+-%+.",
".+$&%%-+++$%%$%$.+$&%%+++$%+.+.+ .%$%+%+++%%+&++%.+$$%%%$$$-+$&.",
" %%$%+%+%+&+%$%+ $%+%+.+$$%.++$. +%+%%.+$&%+%$%.$+%.%+.%$$$+&&$.",
"+..+.+$.+%+..++.+..++++++$+%%%$+.+%%+$%%+%$%++$.+$%++%+++%%*+%% ",
"&.....+ ..+. ....+$%+$$+++$+.++% .  +@.++.... .. ... ..+...#+  .",
"+.$++%$%+%%$+%%+.$+.+++$+%%$++++.++.&+&%&&$$*&$+. %%+*%%+++%++%$",
"$.%$%+%&$+.%%+%+ %%++$%%..%+%+++ %%%+$%+++$$%+%+..$&&+$$$%.+%.%+",
"%++&+%%+++%+%$%. +.$.++%.$$+%%++.%+$++%++$$+$$++ .&$+-$$$%%%$$+.",
"++%%%+%.+++$%++&++%$+%$+$%%%$+%%.+%%%$++$%%+%+++..+%-+%-+%+%+.++",
"$++%%$.+$&++$+$+@%+%%+%+%+$$+%+&+$%+$+.%$+$%++.$..+*%$++*%%+%+$+",
"$+.++$+%+%..+%%&.+.%+%%%+%$+$%+$.%.%++..+%$.%%+$.+%$.++$+$%%$+%+",
"+++++$.+%%.%+++%++%%%%$%&$$.+... %+++&%%+$$.++++.+%%+$%+%%%++%%$",
"++$+++.++++$$++&++$$+*+%%++.$++..+$++$+%+...%++%++%+++.%%&+%$..+",
"+$$$+..+.$%+%$+&.%$$-+$+%%$.+$$%+%&+.+%+++$+.$%%++++%+.%+$%+%$.%",
"$+%%+..$.$$$%$$$.%$$%++%..+%-++%.$%%%.+....$$++$..+$+++$+$$$%$%%",
"+%.+.%$+...%++$$.*+-+$+$+++++.$$#%+%+$$$+..%++%$@.+%++%...+$%++$",
".%+.++$.%+%+%$%*.+&+-%.++%+++.%%++%+%%+++++.+%+%+.%+++-+$+$+$%%+",
"+%++%++$++%++$+& %&$%*$%++$%+.%% +$&%%+++$%+.+.+ .+...+$+.%%+%++",
"+$$.+%+%+++.++%$.%$&++%%%+++%+%.@$%+%+.+$$%.++$. +%%%$+$+.++%+++",
"%+.+%$$%%+$$++++. ....++++....+....++++++$+%%%$+...%%$%%..$&%+++"};
