/* XPM */
static char * library2_xpm[] = {
"64 64 47 1",
" 	c #1B130F",
".	c #1F1F1F",
"+	c #1F170B",
"@	c #1B1B27",
"#	c #2F2F2F",
"$	c #271B0F",
"%	c #272733",
"&	c #13131B",
"*	c #0F0F0F",
"=	c #13131F",
"-	c #271F17",
";	c #433327",
">	c #3F3F3F",
",	c #372B1F",
"'	c #170F0B",
")	c #2F2313",
"!	c #2B230F",
"~	c #371F23",
"{	c #0B0B0F",
"]	c #070700",
"^	c #2F2F3F",
"/	c #0F0B07",
"(	c #070B07",
"_	c #000000",
":	c #070000",
"<	c #3B1F0F",
"[	c #0B0B00",
"}	c #47331B",
"|	c #372B17",
"1	c #4B4B4B",
"2	c #5B5B5B",
"3	c #6F4733",
"4	c #372B13",
"5	c #3F3F07",
"6	c #4B4B0B",
"7	c #4B371B",
"8	c #5B431F",
"9	c #2F2F07",
"0	c #2B2B07",
"a	c #533723",
"b	c #634B1F",
"c	c #8B5F47",
"d	c #7F533F",
"e	c #37374B",
"f	c #131300",
"g	c #1B1B00",
"h	c #231307",
" .+ @# $% && & #.#$   +*.=* ++==+. $$+$ ++$* +   $%  . .-$.+ @ +",
"&* ;;;#>$ .  + ..$ # $=  * $+$$++ + +  &$+$==&&   *++.&* >;,#;  ",
" @ .-%-;.&&  *&++&& @@ = * =+.* *$      +* ++++= $$* **.'-%--;& ",
" * ...-;.$  %$.&$# ..%.*  ==$ $  @$&.*. $$+**$   .)  $.**%-..,$&",
" = ...-;.* ..&.)$& ..&  .   .$= .!&* &$$.=*.& ++..&  +.*...@.,  ",
" +'-...; ..,+.+  $.  =  &  $+  .+.+...# % +=$+  .    .  '~.%.,=.",
" *&'.=  .  . .$  *.$ &$..@&{&*&  * @+..  *+*+ + ..$ .*& ' ='' *%",
"$ ]]&{]&+*.      $ &     @^.+. *&@$ $. .$  * .  .*$+#$. ]]]/]( =",
"    $.  . /&/'/&////&&&/.&=//'&]{(/////{&''{'/////{(&/{$.*=+&   ",
" = ,#,,, -___(_______________________:________________/ @,##,, =",
" $'@...,#.___{_______________________:________________{$.....;&.",
" . ..@%; .____{______________________:________________&$..--.#+ ",
" +*.-@., -_:::{:::::]:::::::::::::::::::::::::::::::::&$'...., &",
"  @.-..,+._::::{::::]::::::::::::::::::::]::::::::::::/+&----;+.",
" $.''.'=+._:::::&]::]]::::]::]/]/]]:]/]://]///]::]/:]](* .. .-+$",
"*&]]]]](*._::::]]&:]/]]]::]]]]/:]]]:]]]]]/]///]{((/&/{(*/&{]{{<=",
"&* .+# $*-_]][[/][.[*]]:::]]/]/]]]::]:///{///{/&{{/.'&($..=&#.$$",
"  =>;,,,$._.][[//][.///:]]/]]]/]]/[:[/'''&'''&/.{&/##.&$&,,,,, &",
" +&...-;$#_{.]]/'][[.&//['[///'[//[[/''/[}<<)}[.{&[##./.*...@;  ",
"+ .--@@, ._]{.]/'[[[*/.&/'['//'[[/[[/'/[[}<<)}/.{&]>#%/. --.., +",
".+*-...;&._]/{.|!}+>>1111}}}>234'>>>!}!)[[<<)}[.{&[>#%{(*....> .",
"@*'-..., ._]/]]'/'/]]]]/+''''.$']/[//'/)[[/''.[#{&[>#%/#'&...~.*",
"@ '&.'==&-_]]]'|!}>>565>1||}5654'//!!}!$[//''.[#{&/>#%{.&''**..]",
"+*{{{{]]*._]]][''4||'++|||||||+'/['''}'/[['')}/.{&/>#%/*{](]({+.",
"/$ - #+.%._]]][|44#787)[|+9||++[)9690'a|[['')}/.{&/>#%.@ +*.*..*",
".+.,#,;, ._]/]'$4#bcdb7[|5+|||.&|78c19+$////'</.{&/e#%&.+,,;>,.+",
"+- ..@%,+._]/]'$'8db874[|9++>|&&|||8d1'$[///'</.{&/e#%(@.@-..,*+",
".+ .---;.._][]'$'11874'[|4!|1|&[)4!|11[|/'//'<'.{&/e#%&%&..-.>..",
" * --.-,+._]]/'4'2>7}}']''!+44'/'f9499[|''//'<'.{&[e#% $....., &",
"   ---.;$._]]]'|''['.[''|>|4+'&'''['[''|'']''./.{&[>#%/# ..-.#..",
"* *'==.-{-_]]]'$'''9]]&'>1>4|14'&]'9]''4'/]''./.{&[>#%/$@   '@@.",
". &{{]]{ ._]]]'))'|!4'])7>|a|17!]0|]4'f4'[]''./.{&/>#%{#/](]]]%%",
".$.%  #++._]]]'|)''|'[)4|!|}>||!/'00'/f|'[]''./.{&/>#%/$....@&& ",
"$$-;;,,;-._]]]/$))''')7214!}4||!4'''''f$'[]''./.{&[>#%'..,,#>#& ",
" ..@.--,+._]]]//+++++!44%%$++++44+]]]//]/]]//&]&({]=&='...%.%#@ ",
"$ &...->+-##>>>####^#>>###^^####^>##;###;#>##>#>#^>##>' '....#. ",
".$'.@%.,+./'///{{/{/(/&///{/&'/&&(/{/&(&'{{'/////&////{$'--.@,  ",
"+*'-@..,@-____________________________________::::____/*'....,& ",
" +  . *+&.____________________________________::::____{+  * / .$",
"@ /&({]{..____________________________________::::____(.{/]]{] $",
"@ +.     -____________________________________::]::]::(@#.++$+. ",
"  +>;#~, ._::::::::::::::::::]:::::::::::::::::::::]::{  ,,#,,% ",
"....@@.,+._:::::::::]::::::::::::::]::::]::::]:::::]::/  --..,*&",
" . ...., ._:::::::::]::::::::::::::]::::]::]:/:::]:/:]/  .@..;# ",
"+ &.-..# ._:::::::/]/::]::]]:]]::::://]:/]:]:/]::::/]]{ .....;.@",
"- =..@., -_(((:::::]/::]::]]]]:::::::]]://:::]]::::]]]/='...%# .",
". '' +  .-_{{{:::[[/']]//::]///[[][/[[/:]]:[/'/[/[['[]&@ '.. . $",
".+({{]]]*./#1{&.&].']]/[/]/////]8|'!}]44!!']]':]{&&{{]/./]({{{*&",
".  %%. $+./#1{....#.]]/][[['''']8|'!}]44!!']]'/[{&&{{]{ *)&&{%-$",
".+=;,,,,$#{#1&....#.]]//[[]|'!']!!''!]<}}}!]|00{.&.'{]&  ~;>,,+&",
"$.@~...,&.{#1&....#.]&&&.&]|}!']!!''!]<}}}!]>00{.&.'{]& '.@..,.-",
"+$ ....;--+#1.e>.#e.]..##0]}|'<]|!''|{47}}|{|f0{0.0.{]/,=..-.;. ",
"& ..-@.;+.+#1.e>.#e.]..##0]}|'<]|!''|{47}}|{|f0{0.0.{].@&..--#@%",
".  --..>../>1&ee.#e.{.|.|0{8<<<]8|'!}]||!!|{|f0{0.|.{]/+'.%..,&+",
".+&. =.%*./>1&ee.#e.{.|.|0{8<<<]8|'!}]||!!|{|f0{0.|.{]/.* ..*.#+",
"$$(/]{{& .{e>&e>.#e.{...|0{}''<]8|'!}]|f''}{|f0{..|.{]&$](((]] &",
"++& +* ...{e>&e>..e.{.|.|0{}''<]|!''}]|f''}{|f0{..|.{]/.$   @&&+",
"   ;,,,,*-/e1&e>.#e.{...#0]}''<]|!''}{|f''|'|f0{0.0.{]/..>,;,,  ",
" $'....;&-/e1&e>.#e.{...#0]}''<]|!''|{|f''|'|f0{0.0.{]/+&.@%.> {",
" +...--#/.{e1&e>..e.{.|.|0&}''<]|!''|]!f''|'|f0{..|.{](#'....,@ ",
" .'..@.,*.{#e.e>.#e.{.|.|0&}''<]|!''|]!f''|'|f0{..|.{]/ .....,**",
"**&....#& +>1&ee.#e.&.|.|0&8<<<'}|'!|{||!!4'|f0{0.|.{]/+.-...,.*",
"**.'' *=..+%#{%%&.%&{&$&$g{4hhh/!$/+$($$+++/%gg(g&$&(]/ *=.   . ",
".!(/{(]{+-#>##>^#>#>##>#;###;##>^####^^###>>#^####>>>## {&(/]{ $"};
