/* XPM */
static char * library1_xpm[] = {
"64 64 77 1",
" 	c #1B130F",
".	c #1F1F1F",
"+	c #1F170B",
"@	c #1B1B27",
"#	c #2F2F2F",
"$	c #271B0F",
"%	c #272733",
"&	c #13131B",
"*	c #0F0F0F",
"=	c #13131F",
"-	c #271F17",
";	c #433327",
">	c #3F3F3F",
",	c #372B1F",
"'	c #170F0B",
")	c #2F2313",
"!	c #2B230F",
"~	c #371F23",
"{	c #0B0B0F",
"]	c #070700",
"^	c #2F2F3F",
"/	c #0F0B07",
"(	c #070B07",
"_	c #000000",
":	c #37374B",
"<	c #0F0000",
"[	c #270000",
"}	c #1F0000",
"|	c #3B1F0F",
"1	c #2F0000",
"2	c #3F0000",
"3	c #0B0700",
"4	c #1B1300",
"5	c #372B13",
"6	c #2B171B",
"7	c #43272F",
"8	c #47331B",
"9	c #533723",
"0	c #633F2B",
"a	c #6F4733",
"b	c #9B6B53",
"c	c #7F533F",
"d	c #4B4B4B",
"e	c #8B5F47",
"f	c #A77B5F",
"g	c #5B5B5B",
"h	c #5F0000",
"i	c #670000",
"j	c #7B7B7B",
"k	c #6B6B6B",
"l	c #4F0000",
"m	c #8B8B8B",
"n	c #4B2F37",
"o	c #570000",
"p	c #2F2B00",
"q	c #574307",
"r	c #4B3B07",
"s	c #4B2313",
"t	c #572B17",
"u	c #2F170B",
"v	c #470000",
"w	c #3F3F57",
"x	c #474767",
"y	c #3F3F07",
"z	c #4B4B0B",
"A	c #2F2F07",
"B	c #2B2B07",
"C	c #ABABAB",
"D	c #231307",
"E	c #131300",
"F	c #5B431F",
"G	c #372B17",
"H	c #4B371B",
"I	c #1B1B00",
"J	c #0B0B00",
"K	c #770000",
"L	c #370000",
" .+ @# $% && & #.#$   +*.=* ++==+. $$+$ ++$* +   $%  . .-$.+ @ +",
"&* ;;;#>$ .  + ..$ # $=  * $+$$++ + +  &$+$==&&   *++.&* >;,#;  ",
" @ .-%-;.&&  *&++&& @@ = * =+.* *$      +* ++++= $$* **.'-%--;& ",
" * ...-;.$  %$.&$# ..%.*  ==$ $  @$&.*. $$+**$   .)  $.**%-..,$&",
" = ...-;.* ..&.)$& ..&  .   .$= .!&* &$$.=*.& ++..&  +.*...@.,  ",
" +'-...; ..,+.+  $.  =  &  $+  .+.+...# % +=$+  .    .  '~.%.,=.",
" *&'.=  .  . .$  *.$ &$..@&{&*&  * @+..  *+*+ + ..$ .*& ' ='' *%",
"$ ]]&{]&+*.      $ &     @^.+. *&@$ $. .$  * .  .*$+#$. ]]]/]( =",
"    $.  . /&/'/&////&&&/.&=//'&/&(/////{&''{'/////{(&+{$.*=+&   ",
" = ,#,,, -___________________________________________&/ @,##,, =",
" $'@...,#.____________________________________________{$.....;&.",
" . ..@%; .____________________________________________&$..--.#+ ",
" +*.-@., -____________________________________________&$'...., &",
"  @.-..,+._..:..***.*__.:..***.**.:..***.*__*.**]]]*]_/+&----;+.",
" $.''.'=+.__*.*___/*/__*.*____*<_*.*___/*/__]*]____]<_(* .. .-+$",
"*&]]]]](*.__[:*}}}}[<{{[:*}}}}[<_[:*}}}}[<{]}.]<<<<}<_(*/&{]{{|=",
"&* .+# $*-__[#}}}11[<{{[#}1222[<][#}}}11[<{]}.<}111}<]($..=&#.$$",
"  =>;,,,$.__[.}1}}/[<{{[.22222[<{[.}1}}/[<{]}*11111}<{&$&,,,,, &",
" +&...-;$#__[.}<}1}[<{{[.11222[<{[.}<}1}[<{]}*}}111}<{/.*...@;  ",
"+ .--@@, .__[.}}111[<&{[.22212[<{[.}}111[<&]}*111}1}<{/. --.., +",
".+*-...;&.__[111122[<.{[121<12[<{[111122[<.]}}1}<}1}<{&(*....> .",
"@*'-..., .__[1|2222[<.{[121221[<{[1|2222[<.]}}1}11}}<{/#'&...~.*",
"@ '&.'==&-__<<<<<<<<<{{<<<<<<<<<_<<<<<<<<<{]<<<<<<<<<_{.&''**..]",
"+*{{{{]]*.>##>^#>#>##>#;###;##>^####^^###>>#^####>>>##/*{](]({+.",
"/$ - #+.%. - #+.% $*$ @+.++*/..  .# $.   $ $*.    +. +&@ +*.*..*",
".+.,#,;, .___3443334!!5___________*..#6~6~~~~7~~76#.*_&.+,,;>,.+",
"+- ..@%,+.__34!!58890abc____>d____344!5558858!!55!4433(@.@-..,*+",
".+ .---;..__4!5cee5f9e40___g#.g___!8aca9!hi8990a095!43&%&..-.>..",
" * --.-,+.__3409590cb5f9___j.kd___8aecbb8lh0ecebbea084 $....., &",
"   ---.;$.___5!444!59a9____km>>___.#>d~n6lo6nn77n~>dd./# ..-.#..",
"* *'==.-{-_pqrp.pqrp.pqrp__mjg>_.##>|sttuvo|ssst>dgj__/$@   '@@.",
". &{{]]{ ._#..#*#..#*#..#__kjm>_34!89988!2l889985!43__{#/](]]]%%",
".$.%  #++._wxxw&yzzy.2222__kjk#_!8acacac8590acacaca9__/$....@&& ",
"$$-;;,,;-._dgd>.dgd>.dgd>__kmgk_8aecbbbffbbebfffea98__'..,,#>#& ",
" ..@.--,+._:ww:&AyyA&2ll2_.jmgj*!!80acca0acacccca098__'...%.%#@ ",
"$ &...->+-*%%%%&BBBB&2222*>mCkgmk.#>DuuDDDDuuuuD>dgk__' '....#. ",
".$'.@%.,+.##>>>####^#>>###^^####^>##;###;#>##>#>#^>##>{$'--.@,  ",
"+*'-@..,@- +&*  @+&. )@=+$ ..*+  +.$*...%&$  *.. &+. $/*'....,& ",
" +  . *+&.____________________________________________{+  * / .$",
"@ /&({]{..__________________&&&_..____________________*.{/]]{] $",
"@ +.     -__]']'''_______E__&&'_.'_____'''''_''''''___*@#.++$+. ",
"  +>;#~, ._8{.''5'{'!!!_{E&_&.._#>_)|)_!FG!!_G!!!G'___&  ,,#,,% ",
"....@@.,+._8'!'|8G'GG58]&'._.#:_>#_)|)_8aG88_FGGG8'___/  --..,*&",
" . ...., ._G'!'|GG'GG5F]&'._.#:_dd_E''_GcG!G_5!!!G'___/  .@..;# ",
"+ &.-..# ._8'!.G!8'85!H]&'&_.#:&dg_E''_8c|8F'F5GGG'___{ .....;.@",
"- =..@., -/H'!'G!8'8!!H]'''_.#:{>#_EE'_Ga||a'5!!!G'___/='...%# .",
". '' +  .-{H'!'8!8'G5!H]&'&_.#:&dd_)E'_Ga||a'5!5!8'___&@ '.. . $",
".+({{]]]*./H'!'8!H'GG5F]&'&_.#H&dd_||)_8a)|a'55G58'___/./]({{{*&",
".  %%. $+.{!/+I)+)/$++5]{{{]&&&]%%_D+J_!8++8_+$$$!/___{ *)&&{%-$",
".+=;,,,,$#>##>^#>#>##>#;###;##>^####^^###>>#^####>>>##&  ~;>,,+&",
"$.@~...,&.%- @. & *=+$ #&*$ #. $*$ ..+  $  +$.. &./**&& '.@..,.-",
"+$ ....;--___________________________________________'/,=..-.;. ",
"& ..-@.;+.____________________________________________&@&..--#@%",
".  --..>.._>g>#...#.__>g>l2..#.**.**]}_>g>Kl..#.__]]__/+'.%..,&+",
".+&. =.%*._.>.___'.'__.>.11__.}_]*]__}_.>.h2__.}___<__/.* ..*.#+",
"$$(/]{{& ._|g.1111|}&&}g<1}<<}}_}.]<<}&|g.l2__[}__<<]_&$](((]] &",
"++& +* ..._|d[1122|}&&|d12}}}|}]}.<<<}&|d122__[}__<<{_/.$   @&&+",
"   ;,,,,*-_|>12[[J|}&&|>12}12|}{}*<}<<&|>112}}[}<<<<&_/..>,;,,  ",
" $'....;&-_|#1}L21|}&&|#12}}1|}{}*<<<}&|#2l2KK|}}}<<&_/+&.@%.> {",
" +...--#/._|#11ll2|}.&|#22122|}{}*<<}}&|#hKhlK|}<}<<&_(#'....,@ ",
" .'..@.,*._|l22lhh|}%&|111111|}{}}}}}1&|lhl}lh|}<}<<&_/ .....,**",
"**&....#& _|2shKKh|}:&|222222|}{}}[111&|2hlhhl|}}<<<&_/+.-...,.*",
"**.'' *=.._}}}}}}}}}&&}}}}}}}}}_<<<<<<&}}}}}}}}}<<<<__/ *=.   . ",
".!(/{(]{+##>>>####^#>>###^^####^>##;###;#>##>#>#^>##>-' {&(/]{ $"};
