/* XPM */
static char *ec117259f34542d19a128dc5a89110a8NhyXJZQ3Sa9Mo6Y3[] = {
/* columns rows colors chars-per-pixel */
"64 64 254 2 ",
"   c #060707",
".  c #0C0906",
"X  c #0C0B0B",
"o  c #070808",
"O  c #130D05",
"+  c #190F04",
"@  c #110E0A",
"#  c #1C1105",
"$  c #15110C",
"%  c #1C140B",
"&  c #161007",
"*  c #141413",
"=  c #1A1612",
"-  c #1D1915",
";  c #1B1B1B",
":  c #171718",
">  c #0F1010",
",  c #241404",
"<  c #2B1602",
"1  c #2D1904",
"2  c #22160A",
"3  c #25190C",
"4  c #2B1C0B",
"5  c #271805",
"6  c #331C03",
"7  c #3A1D01",
"8  c #321E09",
"9  c #301700",
"0  c #231C15",
"q  c #2A1E11",
"w  c #221E1A",
"e  c #362205",
"r  c #3D2204",
"t  c #33220C",
"y  c #3B240A",
"u  c #3E290D",
"i  c #37280A",
"p  c #2D2114",
"a  c #25211C",
"s  c #2B241C",
"d  c #2B241A",
"f  c #332414",
"g  c #392712",
"h  c #3C2A14",
"j  c #31261A",
"k  c #35291D",
"l  c #3B2D1C",
"z  c #3D311D",
"x  c #2E210F",
"c  c #1F2020",
"v  c #242424",
"b  c #292622",
"n  c #2D2925",
"m  c #2C2B2B",
"M  c #342C23",
"N  c #312E2B",
"B  c #3C2E21",
"V  c #3C3124",
"C  c #34312D",
"Z  c #3D352A",
"A  c #343434",
"S  c #3A3632",
"D  c #3B3935",
"F  c #3B3B3B",
"G  c #373738",
"H  c #2F2F30",
"J  c #470B0B",
"K  c #590007",
"L  c #4A1C05",
"P  c #551A0E",
"I  c #630006",
"U  c #6B0006",
"Y  c #670409",
"T  c #740005",
"R  c #7C0104",
"E  c #72090A",
"W  c #671A0A",
"Q  c #751B09",
"!  c #671E12",
"~  c #422504",
"^  c #4C2403",
"/  c #452905",
"(  c #4B2C05",
")  c #412609",
"_  c #452B0B",
"`  c #4A2D09",
"'  c #482309",
"]  c #522B05",
"[  c #572B07",
"{  c #4F3106",
"}  c #4D310B",
"|  c #46310D",
" . c #543306",
".. c #5A3405",
"X. c #5D3A06",
"o. c #53340A",
"O. c #5B360A",
"+. c #56380C",
"@. c #5C3B0B",
"#. c #563906",
"$. c #432D12",
"%. c #432E1A",
"&. c #4B3414",
"*. c #44321B",
"=. c #4A361B",
"-. c #493518",
";. c #533612",
":. c #553913",
">. c #5A3D12",
",. c #523C1B",
"<. c #5D3814",
"1. c #552D14",
"2. c #67250A",
"3. c #762509",
"4. c #633B06",
"5. c #623C0A",
"6. c #673908",
"7. c #753B08",
"8. c #782714",
"9. c #633C14",
"0. c #643815",
"q. c #793D13",
"w. c #433425",
"e. c #4B3B23",
"r. c #453A2B",
"t. c #4A3C2B",
"y. c #453727",
"u. c #413E3B",
"i. c #463D32",
"p. c #533D21",
"a. c #5B4118",
"s. c #5F410B",
"d. c #6C4306",
"f. c #64420C",
"g. c #6B430B",
"h. c #674508",
"j. c #73450A",
"k. c #74490B",
"l. c #7C4B0A",
"z. c #764707",
"x. c #654314",
"c. c #6C4513",
"v. c #63431B",
"b. c #6B4818",
"n. c #7C4E12",
"m. c #764918",
"M. c #7A521B",
"N. c #7F5008",
"B. c #55452C",
"V. c #584326",
"C. c #44413C",
"Z. c #4C463D",
"A. c #4E4437",
"S. c #594A36",
"D. c #564A36",
"F. c #644924",
"G. c #6D512C",
"H. c #775322",
"J. c #755B32",
"K. c #684F31",
"L. c #7B603F",
"P. c #3F3F40",
"I. c #3F4040",
"U. c #414141",
"Y. c #464646",
"T. c #434343",
"R. c #4A4A4A",
"E. c #4D4D4D",
"W. c #4B4B4C",
"Q. c #4B4844",
"!. c #524C44",
"~. c #55524D",
"^. c #5A5349",
"/. c #4F4F50",
"(. c #4F5050",
"). c #515151",
"_. c #545454",
"`. c #5A5A5A",
"'. c #5C5C5C",
"]. c #585756",
"[. c #635F59",
"{. c #6B5C48",
"}. c #69635C",
"|. c #756552",
" X c #5F6060",
".X c #646464",
"XX c #686663",
"oX c #6C6C6C",
"OX c #6F6961",
"+X c #757474",
"@X c #7C7C7C",
"#X c #7B7875",
"$X c #71706F",
"%X c #840102",
"&X c #8B0202",
"*X c #8D0B04",
"=X c #880B08",
"-X c #930503",
";X c #950906",
":X c #990A06",
">X c #950B09",
",X c #9C0D09",
"<X c #990704",
"1X c #97120A",
"2X c #8E190C",
"3X c #A10F0C",
"4X c #A2110E",
"5X c #A41511",
"6X c #AA1A16",
"7X c #A81B16",
"8X c #B01F1B",
"9X c #862808",
"0X c #96280B",
"qX c #86340A",
"wX c #99340B",
"eX c #832B14",
"rX c #8C3815",
"tX c #993C18",
"yX c #9B2812",
"uX c #A73018",
"iX c #943825",
"pX c #B52521",
"aX c #BB2C26",
"sX c #C53B35",
"dX c #834D0A",
"fX c #874B0A",
"gX c #85510B",
"hX c #8C530B",
"jX c #8A5207",
"kX c #93560C",
"lX c #9A590D",
"zX c #814B14",
"xX c #845313",
"cX c #895919",
"vX c #945917",
"bX c #984614",
"nX c #A25D0E",
"mX c #A74119",
"MX c #9B6018",
"NX c #A66313",
"BX c #835B29",
"VX c #944C25",
"CX c #A64827",
"ZX c #AE5228",
"AX c #87653A",
"SX c #8D6422",
"DX c #AD752F",
"FX c #846C4E",
"GX c #B67E48",
"HX c #827B73",
"JX c #D45750",
"KX c #B3854A",
"LX c #878788",
"PX c #929292",
/* pixels */
"m U.U.U.U.T.F m F U.U.U.A A F F F F F T.U.U.T.F A m F U.T.T.T.U.U.U.U.U.U.T.m m F F F A U.U.F F F m v v ; m A m m v F F U.T.U.A ",
"A `._.`._.'.`.).).).`.`.T.U.T.E.).E.`..X`._.'.`.E.A T.'.`._._._.E.E._.`.'.`.F A W.W.W.U.T.T.).Y.W.F A A F W.E.E.F F _.`.`.).W.F ",
"n _._.'._.`.`.).W.).)._.U.m F T._._._._._./.).).W.v m ).)._._.E.U.W.).`..XE.A m F U.P.F F F A A U.W.E.T.E.).E.E.T.).'.`.E.E.E.F ",
"v W.E.).).W.W.E.W.E.E.W.F ; A F R.).E.T.T.T.I.G A v m F T.E.E.U.A F F F F A ; v A F F A A A A F T.E.).E.).W.A A S T.E.T.T.W.T.A ",
"; A C C S S D S C C C m w = w a b n n N N n v b a ; b a C A C N b n b b a w * - n n n n n n n m n N n v A m m n s m m m m A m m ",
"m T.k r } @.o.` / ) _ / ) ) 7 7 7 7 ~ ` ` ) 7 ~ / 4 r ) _ $._ ` } } ` _ / ` u 8 r r 7 8 7 7 7 7 r ( ) u _ h %.h h l d - q s F m ",
"A W.B ~ o.o./ ~ ~ ` ~ ~ r ~ 7 7 7 f V t.p.i.t.t.$.r 7 r ~ ) ` ` ` } o.` ( ~ 7 7 ~ y g d l y.B w.$./ / ( ~ ~ ( / ~ ~ 7 # 5 k U.A ",
"F _.w.~ o.o./ ` ~ ~ 7 7 1 6 6 e r.E.'..XXX$XLXLXoX^.i.k d = 5 5 6 6 7 7 8 d C i.D.b.G.[.}.$XoX@XHXK.~ 6 6 7 7 7 7 7 1 # 5 l E.F ",
"F `.w.~ @.f.} / r 7 6 % % 5 M ~.'.`.).).E.~.{.}..X[.~.Y.W.F d = = % a Z Y.'..X.X.XK.V.].}.XXoX#XLX#XJ.:.1 5 7 7 1 7 6 6 6 l ).F ",
"m U.l ~ ` +.` ~ 6 , # $ % m ).`.E.Z.u.F A V V F D w.,.B.W.W.C a ; w m F F U.T.U.U.A A F F F U.W..X+X#X|.A.0 7 7 7 6 7 r ~ k F m ",
"m T.l 7 7 ~ ~ ~ 5 $ % a A W.T.A N V =.,.e.,.=.=.*.l *.a.Z b ; F '..XT.m v a b v N N N w.=.V y.i.Y.(.`.oXoX^.` 7 7 1 r ~ +.w.U.A ",
"F W.y./ r ~ ~ ~ 1 $ p F T.F n f _ f.g.k.l.l.dXdXdXl.k.g.&.w G .X.XoXoXF a h h *.f.g.g.f.g.g.k.l.b.!.W..XoXOX9.5 8 r r / #.e.W.F ",
"A R.e. .r 6 5 1 # ; F /.F g r ~ #.k.l.dXhXkXnXnXnXlXlXk.~ j }.U.A F E._.d ~ ` / o.>.>.g.k.dXz.hXlXvXF.~..XOXxXt 5 r ~ ~ ` l T.A ",
"U.'.y.~ 6 @ X * b C.].'.C 6 6 7 ( d.l.jXlXNXnXnXnXlXgX .8 Q.~.a S m m ).C q 6 7 r ~ ~ f.z.j.j.l.lXlXl.B.].{.xXw.4 7 r ~ ~ w.`.T.",
"U.'.y.7 , @ ; H _.oX#X.Xs < < 6 r X.k.hXlXhXdXdXdXd.{ g S E.S 0 r.M - F W.m 3 6 7 r / X.7.O.6.X.f.5.X.V.E.XX}.'.k 1 r ~ / y.`.T.",
"U.`.w.7 < w F _.oX@XPX@XQ.p 2 < 6 ~ d.hXdXdXdXdXz.` h u.W.^.j d C.-.8 N W.W.u.$.r r 6 / [ [ [ / / ~ ~ y.(.+XLX+XW.k 7 ~ ~ y.`.U.",
"U.].y.6 q F )..X+X@XPXPX#X_.F V ) / <.dXfXl.k.g.=.u._.).'.C.3 f Z.-.r k C.!.'.].S.p.]  ...L ~ r r ) t.~.$XLXPX@X'.T.V 7 7 w._.U.",
"U._.y.< ; A T._.$X#X#X#X+XoXXX'.~.~.{.AXBXm.v.B.Q.^.U.Z.].s 6 q D.j < 0 F S.C._.$X$X{.V.:.y y $.t.C.).XXHXPXPX+X'.!.B.t 6 w.).U.",
"F E.w.< O 0 n C F.vXAXBXcXH.H.S.V.S.M.xXH.M.m.e.D C s S.S.2 < 4 Y.n , 4 r.~.A A T.'..X).Q.C.r.B.B.F Z.BXMXFX+X'.!.i.w.0 5 w.E.F ",
"A W.w.9 # 6 8 0 k >.k.l.dXl.m.F.b.b.v.B.V.w.M n n n M S.B.< 5 s D i.x 8 t.K.i.m C N N t.,.a.v.V.V.a.dXkXxXK.t.n a t r 2 6 l W.F ",
"_.oXt.< o % r r 4 8 8 y ~ _ $.j f %.*.C.S m C n b n A S.^.M r.S.S ^.E.u.'.!.~.F A y.=.V.B.k.g.*.*.o.;.;.l s - % 1 7 6 2 7 A.oX).",
"T.'.y.6 + X @ , 8 r 7 ~ r / ( ] / r 8 t v F C.A F ).T.Q.XXF ^.+XF `..XF .XU.)._.A e.a.Z.A g 4 4 4 d s : = 8 6 t 7 # $ 5 7 y.'.U.",
"F _.w.7 6 O X o O 2 6 r ) ( _ ;./ ` _ ) 1 q N D `._.N (.oXm T.XXD E._.A E.F U.}.T.S Z m 3 8 ~ ` ~ @.o.6 ) r 8 5 O . # 1 7 V ).F ",
"F (.w.7 7 1 + O o   . . . O @ X X $ $ @ # 2 p l A.l p !.^.m C r.n A F m A C D {.Q.F M * + 5 4 5 % y < % 1 % O     O 6 7 7 w./.F ",
"U._.y.7 7 7 1 # O o O o + r 1 X         . ; C f V q 4 V C s s ).F A Y.n A b n A A N n : o X X X X X o X O O , . O < 6 7 7 w.).T.",
"U.`.w.7 7 7 1 # O O O 8 ` r r $ $ O o o > W.C.Z.XXs b ).A.= u.@X_.Q.+XF F E.k A U.m F F $ O X * * ; * X O , + , < < 7 7 7 y.'.T.",
"W.'.w.7 7 r 6 # . O ~ ~ ` 1 2 2 5 , O @ N ).C '.|.z !.FXG.q F.FXt.F.AXy.P.+Xi.D .X].Z [.=.~ % $ % * % = $ # O & < 7 ~ / r y. XU.",
"T._.w.7 7 7 < o . r X.6 , , # O + 8 o.` Q.T.D K.n.=.G.dX@.f c.kX5.k.jX+.i.AXV.Z }.XXZ `.S.d.o.3 @ # # % 0 % O O , 7 ` ` ~ y.`.F ",
"U.].y. .{ 6 #   o < { r < + . % O.l.O.l R.S V.c.g.-.x.g.x.g f.dXk.k.hXg.;.jX5.$.M.L.u.Z.C.~ 5.@.y 5 + 5 q 4 @ $ # 7 ~ ~ ~ w.].U.",
"A ).w.X.~ # . 4 u 4 , u 6 O t c.l. .5 B S.u ;.>.-.$.M.AXH.c.DXDXxXcXDXSXl.MXf.` j.xXt.e.V.y / O.j.) < 2 * - v ; O 7 ~ ` ~ l E.F ",
"v F g { 1 . 4 f.} / < O O / l.l.r y u w.x.t >.M.v.%.vXGXVX9XtXZXmXtXCXtXwXGXKXH.xXhXO.;.l./ r 8 g.k./ O * s f 4 5 6 7 ` ~ p A m ",
"v m f ~ < # } O.) ~ 6 @ o.dX/ ~ X.r 8 =.o.$.vXNXvX2X*X1X,XR %X,X4X-X%X&X-X5XiXiXZXKXc.o.dXr r @.j.o.j.O.8 6 6 r ) 1 7 ~ ~ f m v ",
"; m p 7 , 8 ` / ~ 7 # $.hXf.8 8 { b.x.:.o.{ n.qX=X-X-X,X&XR %X&X-XR U -X<X;X&X;X=XCXzXO.dX_ 6 ` r 4 ;.dX` 6 7 7 ~ ~ 9 7 7 f m v ",
"v A f 7 # 8 / ~ 6 + 4 xXd. ., 7 b.SX` &.x.m.Q R &X-X,X,XR %X%X&X&XT R &X-X<X;X-X&X&XqXcXk.&.g.o.e e 8  .dX/ 6 < r O.e < 7 f H b ",
"v m f 1 4 ~ ~ ~ r , c.hX( r < k.H.y 7 :.vXrXT %XR &X<X-XR &X-X&X&X&X&X;X4X5X,X;X&X&X0XDXn.e y c.:., 6 ~ kXj.5 6 / +.1 O 6 f m v ",
"; v f 5 @ e ( ~ 1 ` gX4.j.{ O.n.e 6 u m.bX*XR &X%XR %XR R %X%X%X-X-X&X,X4X6X5X-X&X&X&XZXvXr 1 f m.o.~ X.4.l./ 8 q 4 r 5 $ 0 v v ",
"* v p # % e 6 5 r m.k.e { 4.n.f 7 g n q.1X-X,X,X,XT T %X&XT T R &X-X&X%XR &X;X,X&X%X%X1Xq.t 6 5 / c.g.~ / ( j.3 , r o._ 2 = v v ",
": v f , | @./ , 4 n.X.4.5 g.@.6 u $.n 3.%XR &X5X5X*X&X&X%XT R *X;X&X%X%X%XR R &X&X;X-X-XQ e r ~ ~ / d.r ..~ n.4.6 6 ~ o.8 3 v ; ",
": m f 5 g ~ ~ 6 u g.6 / 4 dX~ r u h $.2X%X%X%X5XpX,X%X%X%X&X;X;X&X&X-X-X-X;X*X&X:X,X<X,XQ ) / ` O.` X.j./ ~ 4.kX~ ~ ` o.8 % v ; ",
"* ; 4 5 1 ~ r 6 ) j.( / 5.k.r ~ ~ ~ 1.7X5X,X>XpXpX,X&X%X&X;X&X%X%X-X-X-X-X3X,X&X-X;X,X;X%XO.` ~ X.+./ d.r ( ( kX/ r y } u $ ; : ",
"@ ; q 5 4 t ( e o.lXkXgXMX..y _ &.o.P 1X8X8X6XpX6X,X-X&X-X;X-XR %X-X&X-X%X&XR T -X,X<X&X%X2.;.) { @.( g.fXz.dXlX( 7 6 $.o.3 * ; ",
"* v f p 5 5 } ~ ( 6.j.O.vX( ) l f.g.2.T %X=X,X4X;X,X-X%X%X&X&XT &X&X&X&XR R U R ;X-X&XR R Q :.$.u >.` g.4.6...kX5.X.~ ~ o.3 ; v ",
": ; 2 n y ~ h.{ `  ./ ` cX/ $.V k.k.2.U I I %X-X&X-XR R %X-X&XR &X&X%XR R %XR %X%XI T T %X3.>.w.p >.} 6.y  .o.gX@.X.o.( ~ % ; : ",
"* * # d 1 6  .( 4...6.o.xX$.*.V k.l.2.I I K %X-X&XR U R -X<X-X&XR R U %X&X-X-X&XT R ;X>X&X! a.,.a ;.:.g.)  .r hX4. . .#.u $ * X ",
"; v q 2 / ( / 6 o...) 1 dXV N l g.l.2.I U U R %X%XU U T R &X<X-X&XR T &X;X;X-XR T >XaXsXpX8.:.>.d $.>.j.4.4.( hX4.X.( ~ r 0 v ; ",
"A U.k M c.d.h.r u / 6 ~ j.B m t 6.N.3.I T U U R R T %XT %X;X<X,X,X,X;X-X<X-X%XT %X6XsXJXJXeX+.M.d | f.j.6./ / kXo.` (  .` a U.A ",
"A W.k 0 q 5 / r ( 6.j.l.zXM m 8 7.l.3.I R R %X%XT T %X&X&X;X<X;X;X<X<X<X-X&X&XT %X6XaXsXsX8.;.zXt 5.g.k.j.X.g.MXu g  ...r a T.F ",
"m T.k , e 5 1 6 $.y O...H.N r.f 6.k.3.%X&X&X%X%XR %X&X&X&X,X-X%X&X5X4X<X-X&XR %XR =X5X5X-XW 9.0.p gXl.l.O./ 4.cXu o.>.<./ w U.A ",
"m U.M / c.f.g.[ :.( O. .F.M V.s  .N.9X;X-X&XR &X&X&X&X&X%X;X-XR =X6X,X-X%X%X%X&XR T R R &XQ a.t _ kXgXgXO.8 / xXu ;.9.;.o.d F A ",
"; v q y  .X.k.o.>.4.4.O.v.M V.s  .gXwX4X-XT T %X%XR %X-X&X&X-X&XU R &X%X%X-X-X-X%XU I %X;XQ >.y t n.H.gXz.O.r l.7 ^ r ~ o.0 v ; ",
"; m p } ..( f.` :.r  . .F.V y.a  .gXwX<X&XT T %X;X<X&X;X;X&X&X&X&X&X%XR R &X<X;X%XU T &X,XeX>.i 4 x.v.jXO./ r dX' ( r o.>.0 m v ",
"v A j w.u 5 ( y >.6.j.g.M.$.-.; u gX0X;XR R &X<X,X-X&X;X-XR R &X4X5X*XR R -X<X;X%X&X-X<X4XeX>.t 5 g.k.gXz.X.O.vX( ( ] z.g.p A m ",
"n F k Z 4 o t u 9.6.g.j.xX` ;.- t k.9X&XT R >X;X-X%XU &X&X%X%X<X4X5X,X&X%X&X&X%X%X&X4X4X3XQ f.e % g.l.gXkXl.kXNX( ~ ] l.l.0 A m ",
"m F k *.r + ( y 9.r } :.xXo.@.0 - g.3.T R %XU U T %X%X%X%XT R &X;X;X;X%XU R T %X-X-X<X:X-XQ g.) , f.m.gX4.{ / hX^ L ..7.z.s A m ",
"A F j *.y r 5.e c.y } n.hX>.f.q * u P E 2XR U K U R *X%X%XT R R %X%X%XT U Q T %X-X-X-X>XyXQ g.e 5 h.f.n...] g.kX) 6.k.kXdXk F m ",
"C U.l r r ~ / 4 V.6 r g.cXs.s.d ; 4 P Q 3.R I K I E m.1X-X&XR T U U R %X=Xm.E %X&X-X&X>XbX8.o.# 5 h.X.l.6.[ X.kXg -.} 4.5.s I.A ",
"v F k 4 6  .6.8 v./ ) +.J.,.>.s w 3 J 3.fX=XT T U 8.m.1X&X&X%X%XT T &X&X1Xm.8.%X&X-X&XyXzX2.%   1 g...l.` / r kXe / o.@.` w A m ",
"v A j y.+. .] 2 v.hXl.hXJ.a.,.n v * J ! m.*X&X&X%X! 5.=X%X-X&XR T %X;X-X*X5.! %X-X;X-XuXzXJ     i g. .l.O.#.O.ZXr ^ v.H.j.d H m ",
"v G l t.>.O.( 5 v.o.X.k.J.c.@.d ; * J ! q.1X;X<X-X8.0.*X&X-X<X&XU &X,X,X1X0.8.,X<XR R wX9.J o o i f.o.l.hXdXbXZX~ 6 +.m.j.d A m ",
"; n p w.f / ~ , O.^ #.O.BX5./ % : * W 3.+.yX4X;X&X9X0.0X7X6X-X%XR :X5X5XyX0.rX4X4X%X%XqX<.J o > x ( ` g./ O.] kXr r ( o.X.3 b ; ",
"* ; 4 B.-.~ r , [ 7.6.O.M.O...- v M 3.9Xo.tX6X<X-XeX>.wXpXpX&XR ,X6X6X>XwXa.iX3X4X&X;Xm.G.W $ - - L L j.~ j...lX/ ~ ~  .4.% - * ",
": c 4 >.` 6 ~ 1 / 1 # ( 6.^ ^ - v n ;.0.h 9.rX0XwXbX&.fXwXwXwXwXCXCXmXVXcX} qXtXCXVXtX=.v.[ a - ) < L g.6 4.dXnX~ o.f. .( % v ; ",
": v p V.g. .^ < ( 7 ,  .j.7.qX5.w v d 0 ; 0 s k z *.g f ` &.>.f.c.m.c.b.-.f $.,.,.e.z a % p v g 9X3.3.j.6 # 6 kXr ~ { 6.g.3 v ; ",
"; v p :.g.f./ , 6 ^ ( 5.@.k.l.j._ : : * X * : = * * * * * - 0 - - ; 0 - * : = : ; ; ; : * * p 6.3.6.2.f.} (  .l.5 < 6 ^ / 0 v v "
};
