/* XPM */
static char *_ccdb9be68b74da8c89cce4a1ef04e4azg0Nk5IVVA8Dr9L8[] = {
/* columns rows colors chars-per-pixel */
"64 64 28 1 ",
"  c #0C1012",
". c #0E1216",
"X c #0F1616",
"o c #13191D",
"O c gray10",
"+ c #181A23",
"@ c #181C20",
"# c #19192A",
"$ c #181A2D",
"% c #1D1D2E",
"& c #1B1F33",
"* c #1A2028",
"= c #19242C",
"- c #1F2828",
"; c #282824",
": c #252B2F",
"> c #2D2D2D",
", c #33332B",
"< c #242731",
"1 c #262E37",
"2 c #2A3531",
"3 c #2E363B",
"4 c #2A333D",
"5 c #3F3F3F",
"6 c #2E3642",
"7 c #324047",
"8 c #3F474D",
"9 c gray30",
/* pixels */
"*:>****:>***-O<1>@**<<:**->:5>o1<>:-51::**o*133<<*<:>>:>:**@<*>:",
"o>75:3**>>@*><,1>:<>>o<*>1<**:>>1<13<*>**3>+@531>*>1><>3183:>1<*",
"3*385>3*>>o:3<>33<*1o351*<**o@<>:535<>55>:31*1<3*<*55533335>1<3*",
"*>22:3>5;;*5>-o3<>:>>*>5>5><*<5813>>-*<553o>3*-**-<1<>:<<>3>><3<",
"*>3**<O;>>*3**1:*:*3@@>@><*>5>*>>o>>>*@<53>><*3@>*5:>*3<33*>**<>",
"o:>****:>***-O<1>@**<<:**->:5>o1<>:-51::**o*133<<*<:>>:>:**@<*>:",
"**:<*31:>><:o*3:5><<<>>:*:>-****>-3>:53:-*<>-<<;5*@3:***@3o-<*o>",
">*>*:>*<:<>***3-@;>:*:3<*<1oO5<<>1:*<>O*5>><>>*>*1>*>:>1:5*<****",
":,<31731*::**>>@*1:**@*:@*@<o1*1oo;<:1O13><>:o>>*3**:*>>>:>>:<11",
"<<33o:<>O*:*;<>>X>>*3*.::O*<**>>3<1O:-:3,313>+<1:**<>*-:*O:**:>:",
"*;>:3@+:>>>O*>>:*>>:-**<o>:*><O<>15>>*51><>>>*<<>****>:*><<*3:*>",
"1>>13:*<:O3>>**O*::*-*<*:<;>*>*:**3>33>><><:<>:*>OO***;:<***+*<>",
"<>>*>>318>,3>>3<*<1>*<*%**3o**>:<*>:*>><1:>>>:<<>:OO>*>1*@1+*<3:",
"*:3*3->*>-:<5:o*3<>*o31*-<1***3,3-@5>>>>13*:O*:3->***>13><<*:<<:",
":3***1*5<*>*351<><>*<<1>>>1>><1><:1<:1*<<>1:*O:***1>>>>-<-*><14>",
":*><3:<33@:>OO*>:3*>*13*:*>@*:31*<>@*:1311-3<>>3>13>:<:1o>:;**6*",
":-2**>o1*:*:<>>>5*33*->>*13>3@:*O*-**:*:***>>*:1>53:<:><o*:>*<:>",
":>>*>:>*@55**@7>:<3<*><*3*>*->:;*<<::>3;**3<533:53>>**>*1<:*<<<*",
":*15>-<3>113-31>:*o<o:131>:*>>><:><5*<15*:<*<<*>->>>>:>511:><*>*",
"1<1*1**>3<<***<o$***><>*1<*O3>*>*o*33><>:3*o33:<1>>>-:>*1>:>**>1",
"1>:<:**-o-O@<<**><3>:*>@<<X**>-;<>>3*<:><>*>O::<5*5:>>*><<1>:*<<",
"1><*1*+*:o>*:3OO>:5>**>3<o51*<*O**>:<**:<<>>5>>>231*<><>:>13>><*",
"*><:<-<>@:@>>:*><<1<* ,>*3*>><;->*:>*->-;*<**5@31:3<*:>*>>1:<*<:",
">><5:*3*:::*O*O>>3*:**>*>>@->@151>><*****:>>@*>*:3>:O><-::*>:*6<",
":<5>*<>:5>>*::>3-*<*>***:**<>*1:*>>*>;<>*::;:<>@>***>11:><>:3*1:",
">:3>**3<*:>*<><@>>***o>3->>53<<:**>>1->><1*>O>:O:<:>>+><*5:1:*:*",
"*3:*:*55*@*>><<1:<o<<O<>>>*<@53>>3>*O<;>>*o>o1:3>31*:>*>*O>:>>*<",
"3>>:*>@<1<*<1><*<:**>>*<><*@o3<>o1*******::><:*:O:3:*<1**-*1<5<1",
":>5<@<>:<*::<>1o:*:>:o3>Oo>O**.**>>**;>33<>:1>*OOO3**:3*:O33*;>:",
">*1<*535*o@3<1*<>o<@**1:O>O+>o:O*3>oO3*:5o:>>1>*->5*>56:>*:*3<3O",
"3:<**1<1>:@>:*<<33*<13<<<*><3:1*;1>OO>:1**><*>*-<:>><3:*:>>>:1*O",
"<<3o<<><;><3*33<*:***>35,:**:*:*5>>3**<1333<<***<>*>3:>>**3<>*>>",
">:5<@*-***<<<>>*1>*+33*><><*:3311*3335>>::>*:>***3***@><>:<oO>**",
">::::><*->*>*<@>*><<1*<1<*>***<:*>>>**<1**o>3<<3>O<>:><:*:>13*1*",
"**<***><>::<::1>**<****35:o:<:<>>4*@o>@**1O<><>:*<<<<<:O->>*<>>>",
">5>*<**O*>*>:*>o*<*:<*:><:***1:>*>:*>>>o>3>o@>*::>>:<:>->>*:**<1",
"-:5<>><*3>3<:>*:*>>>>:*>->**3**:*o:*:<:3>><3@**<>:*>53<:-:>><+>:",
"-:35>3+***>>>--<5**<-5<*>>*><3*>12:O*>3<1>>*O@1<5o>:<933>>-135<<",
"*<*:>>*:**:*>><>31:>5,*:<353:<:**>>*:*+:>>5>o>53*:3>>*3<*<->***:",
"**:<3:*58*X>Oo*1>*o>**><5O3:<<&1**55***><3>>2>>1*:><<<>><**-O*1*",
"*+1<>>>>3**-1**:->>*:>>>*@::3<>o:><*<<>5>-33:1:>1>>>*>*@O<***1>:",
">:<>*>*<---@***><<*:51**>31*1>*>***1:<<33*o>5<>;*:><*<<**>*o<*>:",
">>>>>>>*<<3*>*:**<1*::>**>3<>@**<*><1:<**><-*>::*31*:*+;**:***><",
"*3><1>:>o><*:<1**>*@-*::>::*>****oo31:*:@>*>>:*>@:*:>*<+*>*@*<<3",
">*:<*<*<<<<><<*O@@><O<::<:@>1:**o*>53>:@*>*<>*:@:5*3>>*:>*o*><**",
"::***>>>>****:*>>3>o::<33*1>*31<*;<>>*:>3>**>**<*>>>>:*>1<1<*<*<",
"-1**<*1:>O<*5*><583*5>>1<3**>1>>*3*O>:3*<>:>>3:>-<1<:*<*3<1**@*>",
"<1<*1>:>>->><-*:<<>5,,3*%<<<<><:<*<:<<:>:>3<>>3323>1::5<<*o:**<*",
">**><o<<3>;->**o>>>135><><>>**><1*@;*>:<>>5><3-><**>><*-**:>><>o",
"***<*o>@1:> *<<***33>>@-::*:>**<:>*<>>@<*+>>>555<<1*<*@;*>3*>*:<",
"**<><>o:3*O**<@:55>>>*13>*<>O@<:>>*3>:o***:3,32>33:**<31<<1<****",
"*1*>::@::>*O:*5<<:5*:<o>:><****><*<1>*>>:;>@***14**O**:3*>1>*>**",
"><*<1<<*<<O****<@:11>***3><>:<<1::>::->o*> O*:*o<@*><>*>*>*-*<**",
"@*>**:<*-***<;:*::*1*>**::*<53<<:1*:>*5>,*o*@***;**:*>*o**O@**1>",
" :*>@*:>*<<*1<:<**<1O*@:O<**1:o<>*1>3>53>****&<1*>3*<*@*> <o11>*",
"***:@**>>**:**5*-*1*>o>>><<->3*****>*>3>****><<1<*::<*OOO>*>o3<*",
"o<1*>**<:**>>:::*1:3*<<1<**<*-*oo**1>>-5>>@::*<<>:<13*>5:5O<o>>*",
"<<<>*:>3<>*>-<:>+<o>*:<::><:*:O*>><1<@*3<>:<o::>1<>-:O>:3>>-o<*>",
">13<-**>O*:>33>><>3>><*@ >>>**:*>2*>:@:>*<55>*>>:**o@o:*@>>>:<>+",
"@<<>5***>*><**>->*<:51+*@**:**<*>***:3<<:*:::>>>>*>**><o<<<<@>1>",
":<53<5>*;>>-:*<3<><3*>:<:O@:-3<>>*O:5>>**>*3O*>**>*><>O****>*>>>",
"::>::<*>*1:o:>**o*o**,<<>-315,>*>>*<*3<<>*>1<***<*<**1<<::****1<",
">#<><@***:@**11*:@****@**>1oo@*:>*@*1:->>:*3*<3**>*+>****>:****<",
"*13<-**>O*:>33>><>3>><*@ >>>**:*>2*>:@==*<55>*>>:**o@o:*@>>>:<>+"
};
