/* XPM */
static char *_089f9ce934c4286aef0b6709faf7de9vuvuv48eTiOr8leL[] = {
/* columns rows colors chars-per-pixel */
"64 64 73 1 ",
"  c #04030C",
". c #050515",
"X c #090616",
"o c #0A0817",
"O c #0A071A",
"+ c #06091D",
"@ c #0C0A1C",
"# c #100D1E",
"$ c #10101F",
"% c #060923",
"& c #0D0D24",
"* c #0D0E29",
"= c #110E24",
"- c #100F28",
"; c #0E1027",
": c #0F112B",
"> c #141125",
", c #191626",
"< c #14132C",
"1 c #1A152D",
"2 c #1D182E",
"3 c #161531",
"4 c #191732",
"5 c #171834",
"6 c #1D1A34",
"7 c #1E1C38",
"8 c #20192F",
"9 c #211C36",
"0 c #221E3A",
"q c #252036",
"w c #23203B",
"e c #24203B",
"r c #27213B",
"t c #22203C",
"y c #27213D",
"u c #2A233D",
"i c #28243D",
"p c #2A253F",
"a c #2D283F",
"s c #262240",
"d c #262541",
"f c #292340",
"g c #2B2440",
"h c #2A2743",
"j c #2C2640",
"k c #2D2744",
"l c #2E2842",
"z c #2E2943",
"x c #2F2944",
"c c #2C2947",
"v c #2E2A47",
"b c #302744",
"n c #302942",
"m c #302B44",
"M c #302A45",
"N c #332C45",
"B c #312B48",
"V c #332C48",
"C c #332D49",
"Z c #342D4B",
"A c #352E4A",
"S c #372F4C",
"D c #382F4B",
"F c #36314B",
"G c #37314D",
"H c #38314C",
"J c #38314E",
"K c #3A3351",
"L c #3B3452",
"P c #3C3755",
"I c #3F3958",
"U c #403A57",
"Y c #423B5A",
/* pixels */
"y000447jlNlgy9400<=@4yylt66t07xCpg06pygxCFAIPGHKAll16pe1966yCGj9",
"je4766ygklnjuy66y6@X90674<<445xd0ptyylCANj5tggjgjup64666<>=<9ene",
"uy<4607yglCnju6<0u9<e764%%<447g440u00xAgxj7tgyyyguyye7*4<@>><0j<",
"g06004<4yxSAMj06ujMye6774<<*33:*70060CAyjggxgy0y60ugy060<O=&6ey6",
"e0<66664wlgjlpyjlufy0476475*66*%63<6gxAMjgpCk50w46w7770041*%6<=1",
"up06<906ygplufgypgf9uy0440647w<*034ygMNAMMplg460yyy66tu6>9<@66@=",
"uuj06y<:0jy0y0yw0yu<pj066070yw3>0764:6gCAMpyjpeuy4:46yg0461=0u9>",
"u0s75uu40gy:<4600y0>pygfw0ygjg0><444*40gANauyj900<%*6yygpy09ppj9",
"0yg060up706<<><44666Nll747yjjgy>43461<9uACANpj6607<*70jlllnnANMj",
"7000upppp9<4>><<<4<<Cgj04ylNMy4@e614*+<pFHAMnny70y00tyg65unnAMly",
"y77yeyjguy64=<->44<=yylNljxCNu6=l<@61>9nnnjnMjuegp0g06u9<0jjll9<",
"g0pjpjljjyy4><>>>*&&y0epNnMFGp99M>@=<99229qe91640y0uw491>1099e&.",
"Cyy46pnnHMe<&><*%1<&gxpejMjNUPpeLGGGPP9,eALjuu94xAlGHxMNMAGMlaj>",
"gej66lNMAMe4<<1<*<6=wxljppllUYC9Njj0jA9<pHCC0701PHlNGAAANDGANMN,",
"<ejnpgMNnleep7<1<<1@<7xnljMHYj96Ajj1eNFMnHPGwty9GNNAAAMnlnAAAAM>",
"@>,qnpjnnljj96296>1@60ASCCFUAju9MjjeplNCMHUMlMxeMNACCAnjjjNHKHA>",
"6lnxHHAANAANjuMAnju=600xpuppu091p0ygjluujMHMCxx9nj7yjjjjfjMGGxy@",
"SxgMNANNjjajggjjgy4@<0660yfp0:<>ewy0900ygpMlyyg9y76466yjgjnNxgy&",
"x7yugnnnj060fjgjp03&4y04679u9<61pe66999090ju09e60*<<46y00gnAC0<&",
"xfpugnlu0746ygxjft0<76@+*<67<66<p7*>=661460460716*<<07066fjFC3*&",
"Gg<6ggjt667667xNx60*4>&*>0e9221&lj661e9euue470w176446<%*4ujlu46>",
"GC64gxg06*:46ygxg57*44wgxF2@<67=pp090lCM9960fyg1*44:4>%%46e9<<0<",
"ACg0gCg707yypywy006*6>%<eHl=6uj9Mju0up966=>0y6p74:<*<***><96<<0*",
"t0lNjAxlxGKtw736004&y6*=6lMpejA9ljjuj9*4016yy602y664<*<<6061611*",
"pyjMNCnnufs<<0yggu4%0yy0gMjnayj0lkljj060yfy46002lu64466606@@160<",
"9yjNANll700<30gpy04<yyjjNKCMAljpMMAjMHy96yu66jfelp<*400494&>0ea=",
"&9jnnnnl0007670ff664gljMMAKKHSMpAajnnN0y40fjpju9axg7ygy6064<6ga@",
"4ejljnnjgu770ytsyyu9Cx60jMKYYPC9MgjjjgjAyygnMll1egMlgxCxp096<pp6",
"jyjjjnnnlu470jMj0yp1ll00MCKKLHM9MjjjjjgjgjllnAAeljjxxCxgjp6y4660",
"juffuujNAxyyyjy670u;ujlulSGANNneMbfjljgtgjljlASpNnNy0xggjy409e0>",
"4900ujMANMl0606<6uu6upj99ujMMla2MAjjjpyyyyygufkuCNCgpljly70ygj6.",
"-<e1>,2282u0*11=<q,2w09,1<0AN9,9MCnjjy470yfu0766paleujle<+@@>2# ",
"eyppe66ee626102@NPLApe00gygCGnp4yjMjj0600u06666@7gCxSxCA0*<<<eq9",
"xj600ulM1996209ojMplllj06yyffyy60ypgjugyyu4*<<6@lljgj00066660jnN",
"gj0yyjM7=99pe91=Alljllj76ygMlg74000jjey00j045691Ayygge96226,plMx",
"fygfyje*<0ua1@<<NnNlnjjpllNNw64<16unp6907u064661y<<yy06>611,ee0u",
"y0yy7ff609,01X<1MMNnNMnjMull04y60AA90yMAMuy07e<40y40gy4&1,e6y000",
"0yjy7yjp0<@<44<6CMlnMCSNM6eMngy@<jp>>9eau0600y40xlgy7767666@=*60",
"MMMpygjjj91><66yGjgjMAKAnyylNn9@&999<60yue<4000eH060476p046@=-00",
"Ag770gagju099900y6ylNMHNlMgjMje1O<e92699py60ygg6Fg<ypjgn2&44y0uj",
"Cx60jnajju99y46674gCAMgCCCupjjy,@9peuu00ue000g0<gGyyMnun0*4yGgyy",
"lxgglnNNbMMkl60,gyglMkjxjppgjpe1ennn9=19pj764006pFNlMj0lleyjAne7",
"ygNMMHPKSAACj64>jnllg4yggyg0ygu>AM0a9@<0jywp0000MGNMMjkMjguuGMg0",
"glMNNHSNnlp9666>ypnCy400xjf00la,Hu2pg919yyyu0yueljggujNANla9Ajj0",
"000pgjjjauy0535$pplgyugul6:46y01Aj0upp00470y0yw9e60ufgggMAn6njyg",
"7yyy66ygyy064<<@llgy0y06e6%:60y6nggjjjp040yjgfy2911=0ggxnMg1jg5y",
"yay646ypjj6*460>l0360e74094460y<0ugjMMp0ujjj034=1<>=6yjMNMj,900j",
"4<&+*<4<pp<><&&*y7<6w0ye060e600>40gnAGluMxylg44>,10gjjlygxg&@*<<",
">4<*4epjMypl964*366469ajgjgp40p67yjlAGNMCj0lMg01ayue#>945j0&7t04",
"44676yly600e44yy0606460ypjllugj9juujNANCCMxMnnu6M696XX40yfy&yypy",
"%<400yn7<6we740yg6<<2>*160plNAneNjppllnNCASCMpy9e=604*<ujfu,Agy7",
"460pwyMj00pnl740j6;&@@=>=<9uaMpeAp9eejnpexAe6612a96664400fu6C7uu",
"g0ygggjju90e04<6SGCdppp46plCACxgKAMMxAAMGCSAfy7<ppy0>440uje7x6yC",
"jyyygAxu99e964y1g444><4**6yMSfyjMlMje60lNMSs006<67y0606uu006Ggxx",
"fg0yu999pee04>0<x4%%%*46440jx06ty0yw417pgAC006069900y06y6*46xjjj",
"y7006>=4p92996y1G4%**46654wy45666644;<66yMxgjup0p90006<e0466lMju",
"0<67e<X<9nle190<G6*:><4*:66<*460000*.=<9jg00e0p0u4:606490046llgg",
"u0euj6&<6u09994&Pl64*<4<4664456t7::@&1406><464e6p0<609764666ajjg",
"ypyyp4%<0e=X19>&xlp647064:*:67<44%%<44<6O.=9y0y1e9660e96661<ppjf",
"jj06uy6<9A9=46==jju06y6604*6yd444<>*>&*6=@6ygju1j062alu0ey64Cguj",
"nny0jjj4<jl96<@=exju00<60y77wy4***<%%@&469yfjj9@e616216<4769LGMl",
"jjjjlpju0uMg1<@&4wgy700ggllw7y04*<644<><6ujMMg6#e1=21909666=46ul",
"apu6<120uuu9*@*&<<7e70uxFBl740fp447664*<67ulle6>a96269>>1<6>4<yj",
"006==>=198<&o XX&@@*6>@>pg04&=0e==*@<4*66<7,=#>,1,9,>= X=@>=>=<9"
};
