/* XPM */
static char * wall_E_xpm[] = {
"64 64 92 2",
"  	c #373B3B",
". 	c #202422",
"+ 	c #161619",
"@ 	c #6A7377",
"# 	c #9FA8A8",
"$ 	c #B8BDBA",
"% 	c #959C9C",
"& 	c #70777C",
"* 	c #63676C",
"= 	c #424049",
"- 	c #656C70",
"; 	c #C6CDD2",
"> 	c #DDE2E4",
", 	c #F2F2F7",
"' 	c #EDF2F0",
") 	c #E6E9E9",
"! 	c #C1C8CD",
"~ 	c #3E4240",
"{ 	c #2B3034",
"] 	c #26292B",
"^ 	c #1D2026",
"/ 	c #91989A",
"( 	c #BFC4C6",
"_ 	c #B6BFC1",
": 	c #A8B1B1",
"< 	c #202626",
"[ 	c #CFD2D4",
"} 	c #838A91",
"| 	c #5C6567",
"1 	c #F9FBFE",
"2 	c #FFFFFF",
"3 	c #EBEDF2",
"4 	c #7A7E7C",
"5 	c #52595C",
"6 	c #45494B",
"7 	c #474E52",
"8 	c #E2E9EB",
"9 	c #DFE9E9",
"0 	c #889195",
"a 	c #4B5559",
"b 	c #32303B",
"c 	c #7A8388",
"d 	c #D6DDDF",
"e 	c #A1A8AF",
"f 	c #737C81",
"g 	c #3B4045",
"h 	c #303739",
"i 	c #B1B6B8",
"j 	c #B1B8BD",
"k 	c #F4F7FB",
"l 	c #F0F2F4",
"m 	c #5C605E",
"n 	c #555C63",
"o 	c #FEFFFF",
"p 	c #E4E9E9",
"q 	c #D2D9DB",
"r 	c #F9FFFF",
"s 	c #F2F9FB",
"t 	c #81888A",
"u 	c #6C7C81",
"v 	c #C8CBC8",
"w 	c #D4DBD9",
"x 	c #95A1A6",
"y 	c #919A9F",
"z 	c #AABABD",
"A 	c #8A9C9F",
"B 	c #7C8A91",
"C 	c #3E4749",
"D 	c #F2F4F9",
"E 	c #9AA8AD",
"F 	c #9AADAF",
"G 	c #304240",
"H 	c #505E65",
"I 	c #7C8F8C",
"J 	c #303230",
"K 	c #BACBC8",
"L 	c #7C8F91",
"M 	c #A6ADAA",
"N 	c #8C9FA1",
"O 	c #F4FEFE",
"P 	c #E6EDF0",
"Q 	c #4E5050",
"R 	c #7E7C88",
"S 	c #5E706E",
"T 	c #F4F9F7",
"U 	c #5C6A70",
"V 	c #67706E",
"W 	c #404950",
"X 	c #9CADAA",
"Y 	c #505059",
"Z 	c #8C9C9C",
"` 	c #BAC8CD",
"      . + +   @ # $ % & * = + + + +   - % ; > , ' ) ! # * ~ { + + + ] ~ =   ^ + + = / ( _ _ $ _ _ : @   ^ + + ^ { < + + + + + + ",
"~ ~ ~ < ^   * : [ > [ : } |   ] ]   - # [ ' 1 2 2 2 3 [ % 4 * = ] ^ { 5 * 6 < ^ 7 / ( > > > > 8 9 ; 0 a b ^ + + ] ] ] ^ + + + + ",
"5 6   ]   - $ 1 2 2 2 3 ( / & | | c $ 8 2 2 2 2 2 2 2 1 d ( e f ~ ]   * 4 5 ] ~ # , 2 2 2 2 2 2 2 8 e @ 7 b ^ ^ ] g 7 g . + + + ",
"5 ~ h ~ & ( 2 2 2 2 2 2 > ( i e j [ k 2 2 2 2 2 2 2 2 2 l d ( % m   ~ 5 * 7 { | > 2 2 2 2 2 2 2 2 > % | 7 ~ h   ~ n @ n ~ . + + ",
"{ ^ ] m $ 2 2 2 2 o p > > q > 8 r 2 2 s > > ) > > [ [ [ [ ( : / & ~ { ] h ]   t l 2 2 k q [ q > 8 j *     = 7 5 - c } u n g { ] ",
"+ +   } 3 2 2 2 3 q _ ( q > 8 1 2 o 8 ; _ v w [ i / 0 x # # / c & 6 ] + + ^ 7 # o 2 r q i e : j j 0 7 ] { 7 - } x x x } @ n 7 ~ ",
"+ ] 5 e , 2 2 l ! $ : _ q > > > > q j # i [ > [ % @ - c y # % t @ a   + + h 4 q 2 2 p ! $ e % # # 0 * ~ = | c # _ : x 0 } & | a ",
"+   * # [ p 3 q i # e ( q q ; $ j : / / i d 3 q # & * c # _ : % 4 m ~ < < 7 e r 2 2 q _ ( $ / # z : 0 * m - } e j e y A 0 c - m ",
"] ~ * c 0 e _ _ x x : ! d q ( j : # # # $ [ > w : / 0 # ( [ ! : 0 @ ~ <   c d 2 2 l ; j _ j # j ; ; j c a 5 f % 0 B A # 0 c @ m ",
"h C | | 5 - } % 0 / e _ ; ; j e : : : j ( q > [ _ : : ( q d ; j x @ C h 7 x D 2 s ; : j ( ; ( ! d d _ c C g - } B B A E % f m C ",
"h C n a g ~ * c } } % # j j : : $ $ _ ( [ > > q v _ ( ; ; ; _ z x @ C g | j l s ; x x _ ; d d q [ ; : @ h h - 0 0 0 A A } * ~ < ",
"] ~ | | 7 a @ 0 x / x x e : j ( ; [ [ [ [ > > > q ( _ ( _ j : : # & a a c j ( : % 0 # ( ; [ q ; ( j # @ h h @ x F y c @ | C ] + ",
"{ C - f & c x j _ j j j j ( ( [ > p > q [ q > 3 > [ _ j j z z j j / * * x : / c c / : ! ; ; ( j # : : 0 7 g u e : 0 m G ] . + + ",
"C - x j j _ ; [ ( _ _ _ v [ > ' l 3 > [ ( [ > 3 > [ j : : : j ( ; : c c : : 0 c } # j ( [ ; _ : 0 # j x | a f e # c H h + + + + ",
"- x d D d ; ; ( : # : _ ; > 8 l p > [ ( _ [ > > q ( j : : : j ; [ _ 0 t : _ : # : _ ( ; [ [ ( : / y x } - | f % y I @ 6 + + + + ",
"c _ r 2 d j # x / / e _ [ > d d q ! ( _ ( q > > v ( _ j _ j ( q d ( / 0 j ; ; ; ( ; ; [ [ ; ! : y 0 & @ - & } % 0 0 t | J + + + ",
"t j 8 8 j c f } 0 e j ! ; K z : : j $ ( [ > > d ! ( [ [ ( ( ( [ d ! x x ( q [ v ! [ q d ; j E x 0 f n 6 n f 0 x A A 0 u ~ . + + ",
"t : ; ( t | @ 0 e j _ _ _ : y A e : j _ ; d d [ ( ! q [ ( ( _ [ d ! e e ! q v _ ( [ [ ; z % L L 0 f a C m c 0 % 0 0 c * ~ ^ + + ",
"t : ( j c @ 0 : _ ! _ : e 0 B 0 : _ ( _ ( ! ( _ j _ ( _ $ $ _ ; [ ( j j ! ; _ $ _ ! ( j x B u f 0 c | a | f f c u u @ m ~ . + + ",
"t # ! _ x / : ! ! ! : y } f c A j ; ; j : e # # e : : j $ $ j : M # # # # e i $ ( ( j # 0 c u c 0 0 f | n H n - u f u @ | = < + ",
"t e [ d ( _ ( ! ; _ e } @ | @ 0 j ! ! : x 0 } 0 0 x : ( [ ; : t & c 0 0 c t e ( ! ( j x B u f 0 0 0 f m 7 g C m f B 0 0 y c ~ ^ ",
"c # > r l d ; ( ! _ e } @ | @ 0 j _ : x / c @ @ c x _ d l 8 ( / f c 0 t @ c j [ ; _ : / 0 B 0 N A 0 c @ H C C a | u c x j # * J ",
"c : l 2 2 > ( $ _ ( _ # 0 c t x j _ # 0 c | 7 7 & x ( 9 O s > _ x y # y t x ; d ; : % 0 0 x F x # y % 0 f @ | H a a m c / 0 @ 6 ",
"/ ( r 2 o [ $ : $ ! ; _ : % x j j j x f * C { h * / _ d P 8 > ( j # # x / z q d _ x 0 A 0 # : F # x x x % % 0 u a C 6 m @ @ * 5 ",
": q 2 2 d e % x i [ d [ ( _ _ _ _ : / & a ] ^ ] n 0 _ ; _ : : e # y c 0 x z _ j e 0 A x x x F F # # # x % % y % c | C g C a 5 Q ",
": d r l e 4 R % $ [ > > q [ ; ; ( j # t n h { g | % _ _ : % 0 / 0 t @ S & 0 x y % 0 A E F E x N y x x A B f c 0 % f a h h       ",
"% ! P [ t 5 & # ! > ) ' 3 > d d [ ; _ # c n a * 0 j ! _ j # 0 0 0 f 5 6 a | u f } 0 y : z z x 0 0 x x 0 - a n @ 0 c H g 6 ~ ] + ",
"c : [ j & 5 t _ d p , T , ) d [ d d [ _ # 0 0 % _ ; ; ! ( j e 0 c | 6 g C a | @ } % x E z z x 0 0 y x B a h C 5 - | H m & *   + ",
"c # _ : 4 - % [ ) l T , 3 d ; ( q d [ _ j : j _ ! ! ( j : e x c 5 ~   ~ a H | f 0 x y A x # y A A 0 % f C g 7 a 7 C H c # 0 5 ^ ",
"y z ; _ 0 c # [ ) , T ' > [ _ _ [ q ; j : : j _ ! z e x % 0 } | g h C | - | | f 0 x A 0 0 A A y A B c @ a a | | g C @ : ( x 5 ^ ",
": ( q ( 0 & / $ w ) 3 > q ( j : _ j : x y x x e e 0 c f f f - C h ~ | & f - | f A x % 0 0 % / 0 c @ - - & & - | 6 - / _ j c ~ + ",
"j ; q j & n 4 # v w > [ ( j e # / t f c } 0 } t f @ n n n a C h h 6 & t c @ @ c 0 A 0 0 y x 0 t U | n @ } t | a | 0 : z / 5 . + ",
"e : : 0 5 C @ # ( ; ( j j : 0 f - a 7 | c 0 t V a ~ ~ 6 7 C C h G a f 0 } c 0 0 y N 0 0 x E 0 f H a U } x c 7 W f : : 0 *   ^ + ",
"f f @ | a m t # j z e x x A c U W h h H c } @ a   h ~ 6 7 7 a a a U c x e e : : : # N 0 N x 0 u a U % j e @ 7 a 0 : x @ ~ ^ + + ",
"6 ~ ~ a * / : j : # 0 0 0 0 u m C h h n c t * g {   a | | - @ f f c x _ [ [ ; ( j : x 0 0 0 c @ | B _ ; x @ - c x x c a < + + + ",
"< . h 5 t : _ j : # x x x y c U n 7 6 n - - a h ] ~ | & f c } 0 0 x _ d l 8 [ ; ( z x 0 c f @ - @ 0 j _ x % e j x c 5   ^ + + + ",
"+ . ~ @ / M : # j _ _ _ _ : A f - | | m 5 7 g { ] ~ | f 0 0 0 0 % j [ 3 o P [ ( _ : y B f u @ - @ f } x : ; d ; / m { + + + + + ",
"+ < 5 t % x # : _ ; d q ; j % B f f c @ n C h { ]   a @ B } } } % _ > s r 3 [ _ j : A B c u @ @ | U c : d O D _ u   + + + + + + ",
"+ h @ x # # M _ ( [ > d ! : % } B } } c - 7 g { { h C n @ u f c # ; 3 1 2 k q _ z # A 0 B c @ | 7 @ e 9 2 1 ; t a { . ] ] < + + ",
"+ ~ t i j : i ( ( [ d q ( : x 0 0 0 0 0 f | 7 g g ~ C a U - u 0 : q l o 2 o > ( j # A L L B - a a c j P 8 _ } 5 g h   g   ] + + ",
"+ 5 i > [ $ i j _ ( [ ; ! _ : x % 0 0 0 f | n a n n | | | @ L y _ [ 3 1 1 1 p [ _ : 0 } c - a a - 0 : # t * a ~   C 5 5 ~ ] + + ",
"h & [ T > _ i j _ ( ( ( ( _ _ : E N 0 } c @ - - f u @ @ u c A x z ( > ) > > > [ ( : 0 c f - a a & } 0 & 5 ~   ~ 6 5 @ @ m ~ < + ",
"~ 0 p 2 > _ $ $ ( ( ( _ _ _ ( _ : # 0 0 0 c @ f c c f u c 0 0 A / : ( [ q [ [ [ ( : 0 c u | | | - u & @ m 6 g ~ a @ 0 0 t m   + ",
"~ t > 2 3 [ ( ; ! ( _ j : : j j : E A A % B @ f } 0 c f B 0 c B t y : _ ( ( ( ! ; ; z 0 @ n - c f u - | * 5 ~ ~ a & x : # & ~ ^ ",
"{ @ ! 1 k > d q ; ( _ : x % x x y N 0 0 0 c u f 0 % 0 } 0 0 f u 0 y x : $ _ ( ; > > ; / n 7 @ % : 0 - 7 C ~ g C n c y : # 4 = ^ ",
"] * ( 1 r , > q ! _ j e 0 c B 0 0 0 B f f @ @ c % # # x # A B c 0 y # : _ ! [ q 9 > ( t 7 W c : _ % | G { C m @ u f } 0 } - ~ ^ ",
"= f ! 1 2 k p q _ j : x B u c 0 0 0 c @ n | u 0 e z j _ j z X y 0 x z _ ( ! q q q ( # & 5 * % _ : B n g g - % : % c u u u | C < ",
"Y R ( 3 3 > q ; _ j : % c u c 0 0 0 c S a m c % : j ( ! _ j z # x : _ _ $ _ [ q ; j 0 & @ 0 j _ x f n n - % ( ; z B @ @ f @ 5   ",
"m t i [ [ ; ! ! _ : % 0 B c L 0 Z / 0 f u f L A x : j j x 0 / # j ( ; _ # # _ ; ( $ # x # _ ( _ y c f f L : ! ; j % c 0 x % - 7 ",
"= - / j ( ! ; ! _ e % 0 0 0 N E : x 0 c 0 0 0 0 A N y 0 @ @ t % : j _ : % # $ v ( ( ( ( ( [ ! _ E A 0 0 0 E z z j # x j ! j } - ",
"h a c e ( [ q ; j e % 0 0 y z _ ( # c f 0 x y 0 B c f | 7 a @ 0 / / % x e j ( ( ( ! [ [ [ ; ! _ z # y 0 B 0 % y y x : ; d ! x c ",
"{ n % ; > > d [ j x 0 } 0 E _ ` K x f u 0 x y B u @ | H a H - & | - c # _ ; ; ( ( ! [ [ ; ( ( _ : # y B @ | @ c c % _ q d ! x c ",
"  f ; r O 9 ; j # 0 c f c # _ ( z 0 c 0 x : x c @ | n | @ @ - n g a f e ! [ ; _ _ j _ ( ! ( j z # x / c m 6 a 5 - 0 _ d d _ } * ",
"| x 8 2 O [ : 0 t @ | | - 0 j j y B B y : z x c | | - u f f @ m a | c e ; d [ ( : x x : _ _ z # / 0 c * 6 h G ~ 5 & x _ _ x & 5 ",
"f : > r 8 ( / & | 6 ~ ~ 6 & : _ x } 0 # z j x c - @ f f @ @ f c c & c / _ [ ; j / t } x : z E y 0 c n   ] < h ~ 6 | } # # } * 7 ",
"& x [ l 9 _ } m ~   { ] h * e ( : % y z ! ` E f f f f u @ u } % t & * @ 0 e # 0 - - c % x y 0 } } @ g + + < G C ~ 5 c / / & a   ",
"* 0 ; s 1 [ } 5 ~ ] ] ] ] 5 # ; ! j j ; d ( 0 @ f f @ - f y % f a 6 5 * | 5 5 a 6 | c 0 } c c f f 5 { + + .   ~ ~ 5 c / c 5 h . ",
"| x 8 2 3 : - ~ { < ^ ^ . 5 % ( ; ( j ! ; : f H | | @ c % x 0 - ~ a @ @ 6 . . <   5 f } @ - U | 5 ~ . + + ^ {     a - & |   ^ + ",
"@ j 1 r ( @ ~ ^ < ^ + + ^ ~ R i _ j # x x t 5 h h 6 @ % # x f | | t # / = + + ^   a & & | a a 7 { < + + + + ^ ^ <   7 7   ^ + + ",
"@ # [ ( &   + + ^ ^ + + + h 5 c % 0 c @ * 5   + +   f # x } f f / : $ 0 ~ + + < h ~ 5 5 6 ~   ] + + + + + + + + + . { ] ^ + + + ",
"6 m @ |   + + + + + + + + ^ ] ~ - - 5 ~ ~   < + + ~ 4 / t @ c 0 % % } | ] + + ^ < ] ] ] ] ] ^ + + + + + + + + + + + ^ + + + + + ",
"< < < . + + + + + + + + + + + ^ ~ ~   ] < . + + +   5 * a 6 | & @ * 5   ^ + + + + ^ + + + + + + ^ ^ + + + + + + + + + + + + + + ",
"+ + + + + + + + + + + + + + + + + ^ ^ + + + + + + ^ ] ] . < h     h ] ^ + + + + + + + + + + + ^ < < ^ + + + + + + + + + + + + + ",
"+ + + + + + + + + + + + + + + + + + + + + + + + + + + + + + + + + + + + + + + + + + + + + + + ^     < + + + + + + + + + + + + + "};
