/* XPM */
static char *_928428e04fb49babdb665473192c59fSthLre63wFVV2oUH[] = {
/* columns rows colors chars-per-pixel */
"64 64 140 2 ",
"   c #010102",
".  c #060807",
"X  c #050609",
"o  c #06090A",
"O  c #0A0B0C",
"+  c #0E100F",
"@  c #0C0E11",
"#  c #100F14",
"$  c #0E1213",
"%  c #0F1817",
"&  c #121415",
"*  c #161817",
"=  c #141719",
"-  c #18171C",
";  c #161A1C",
":  c #191C1D",
">  c #1E201F",
",  c #171C20",
"<  c #1A1E21",
"1  c #201F24",
"2  c #1D2224",
"3  c #1F272A",
"4  c #212425",
"5  c #262827",
"6  c #222629",
"7  c #252A2C",
"8  c #292C2E",
"9  c #27302F",
"0  c #2C302F",
"q  c #262D30",
"w  c #2A2E31",
"e  c #2D3234",
"r  c #2E3639",
"t  c #313436",
"y  c #353837",
"u  c #323639",
"i  c #38373C",
"p  c #353A3C",
"a  c #393D3E",
"s  c #37403F",
"d  c #363E41",
"f  c #3A3E41",
"g  c #364041",
"h  c #3C4244",
"j  c #3F4847",
"k  c #3E4749",
"l  c #3F494A",
"z  c #414546",
"x  c #444847",
"c  c #424649",
"v  c #444A4C",
"b  c #494D4E",
"n  c #47504F",
"m  c #4C504F",
"M  c #464E50",
"N  c #4A4E51",
"B  c #465051",
"V  c #4D5253",
"C  c #4F5759",
"Z  c #525556",
"A  c #565857",
"S  c #525659",
"D  c #555A5B",
"F  c #5A5C5D",
"G  c #57605F",
"H  c #5E605F",
"J  c #575F61",
"K  c #5B5E61",
"L  c #5D6163",
"P  c #626465",
"I  c #656867",
"U  c #646768",
"Y  c #666A6B",
"T  c #6A6C6D",
"R  c #6E706F",
"E  c #6B6F70",
"W  c #6E6F71",
"Q  c #6D6F70",
"!  c #6C7071",
"~  c #6D7172",
"^  c #6F7072",
"/  c #6D7373",
"(  c #6E7273",
")  c #727473",
"_  c #717274",
"`  c #707475",
"'  c #737574",
"]  c #737476",
"[  c #747577",
"{  c #757776",
"}  c #727474",
"|  c #767877",
" . c #757678",
".. c #767779",
"X. c #747678",
"o. c #747879",
"O. c #767A7B",
"+. c #787A79",
"@. c #78797B",
"#. c #7A7B7D",
"$. c #787C7D",
"%. c #7B7C7E",
"&. c #7C7E7D",
"*. c #7C7D7F",
"=. c #797B7C",
"-. c #7E807F",
";. c #7B7F80",
":. c #7D7E80",
">. c #7E7F81",
",. c #7E7E80",
"<. c #7C8081",
"1. c #7F8082",
"2. c #7E8283",
"3. c #7E8183",
"4. c #808281",
"5. c #808183",
"6. c #818382",
"7. c #818284",
"8. c #818586",
"9. c #828687",
"0. c #848685",
"q. c #848587",
"w. c #818485",
"e. c #868887",
"r. c #858688",
"t. c #868789",
"y. c #838788",
"u. c #848889",
"i. c #878988",
"p. c #868A8B",
"a. c #888A89",
"s. c #88898B",
"d. c #8A8B8D",
"f. c #8B8C8E",
"g. c #88898B",
"h. c #8E8F91",
"j. c #8F9092",
"k. c #919294",
"l. c #929395",
"z. c #939496",
/* pixels */
"& & & .     & e b A x t 8 -         & w x L T [ ) R K b 8 * @       O * - & X     - z F D D A D D V e & X     X @ o             ",
"* * * o X & 8 V P T P V f 7 & O O & w b P ) @.-.-.*._ P x y 8 - O X @ 4 8 : o X < z F T T T T ! E L h 2 # X     O O O X         ",
"4 : & O & w A @.7.5.:._ F z t 7 7 p A ! *.q.e.e.e.s.q.@.Y F N u * O & 8 y 4 O * b [ 5.7.7.5.5.t.8.! N e < # X X O = < = .       ",
"4 * $ * t F :.k.j.s.q.*.T F Z N S P ..7.5.5.5.5.5.5.5.*.] Y F x 5 & * 4 8 < @ 7 T z.k.t.:.*.5.t.8.T x 7 < * $ & * 6 e 6 * .     ",
"@ X O 5 A 5.k.h.t.%.Q T T U T ! $.1.1.o.T T R T T P P P P F V z t * @ O $ O & a ] z.f...U P U T ! S 8 & & - < 4 w p f r 6 = @ O ",
"    & f _ k.k.1._ U D F U T ! @.1.;.! L D H I P Z z h v b b z p t : O     X < b %.d.$.U Z N V S S h < O @ < w f v v v f e 6 < * ",
"  O 4 N [ s.t.] K A V D U T T T T U S b Z P T P x e w p c b x a e 2 &     $ y U q.q.Q K A N x b b h 8 * - 7 p b D V v h f t 7 2 ",
"  & 8 b P Q _ U Z b N F U U L A S V z z Z Y _ U b t 8 p b D V x y 5 * o o < N $.s.:.U D F A z b C V h 8 5 w f N S N c k h p w 5 ",
"O * 8 p h N D D v v V K Y U F S V b b b A P T I V z h b F P K V h e * o & p Y p.8.] L S D S b S L L S p 2 4 u x h d k b h p e 5 ",
"$ ; 7 7 4 w f x h z N D L L S N V V V S F U T P D V V F U Y L S v e ; $ < v X.p.o.L V S F L F K Y Y D p ; = w f d d k M x u 5 ; ",
"$ ; 6 2 = * 8 p f f x b S S V V A A D F P T T U H D F L L L D C v e ; = 7 S ] o.L v v D L Y Y U P L V e $ $ w h h h k k f 8 * o ",
"O * 7 7 < 2 e h v z v v N V S F L P P P P T T T U F D F D S V V b t 2 2 p S F V x h b F L P U L F S b e $ $ e v B c p e 7 ; O   ",
"@ ; w u t p v S D S S S S F F P T Q T U P U T _ T P D S S C C S S z 8 8 v V z p p z V K L L F S b V V h < = r N V h 5 % O .     ",
"; w v S S D L P F D D D H P T ) ] _ T P F P T _ T P S V V V S F L V p p V V h p f b S F P L D V h b S v 7 2 u N b p 3 $         ",
"w v Y X.Y L L F V b V D L T ! ] Q T P F D P T T U F S V V V S L P D h a V D V b V D F L P P F V z c v f w 7 u x c s e :         ",
"p D $.1.Y S b v z z N D P T Y Y U K F D F U T T H F D S D S F U Y F z h S L L L F L L P P L K V c h t e w t f x h h a 7 +       ",
"a S ! ! S p u f h N S K L G C V V S A F P T T Y K F P P F F F P Y K v v F U P H K P U Y L S M v h u 6 : 6 u h v k k h r * .     ",
"a V L F a 7 e h N S D D D V c k N V S D L Y Y P F K U P F F D P Y K N N K U H D F P P L C x g g h u 2 ; 5 p h x h h p 8 * X     ",
"a V F S p e h V D K D V N h d h V D F D F K F D S D F D A A D L P F S S K L D A D K F S v d r u h p 7 2 7 u u p r r e 5 * .     ",
"a b K D v z V K K K V c f u p k S L L S V N b b N V V S A A S V m b b b b N Z A F F S b h p r p h h u 7 6 3 6 w r u r e 7 - o   ",
"a N P Y F D F K L D N f e 7 e h S K K V v h f h h v V F P L V a t p h h p a N F K F S v d r u h h h u 5 < = ; 5 u d h h c p * X ",
"p b T $.] Y L F K D N f e 7 e h S D V v z p e e p v D Y ] ! F z u p h a e p S P L D V z h d h l k h p e 3 ; ; 2 7 r p v S b 8 + ",
"p V ] y.:.T F A D F D b h p a v S D b h p 7 < < t v F E O.o.T D v c b c a v L Y L V x h h v B v b c x h u e 7 3 2 2 5 p z h e : ",
"z F $.p.%.P A V A K L D V x v S S S v u 8 ; @ $ 8 z D Y ( ! T F S b b v z C U Y D v h k h b V B b v v v x x h r 2 ; : 5 e e 8 4 ",
"V U 1.2.Y N x v Z P Y P F D D D D V z t 2 O X O 6 h D L D V V N b c p h v C D S N h k v v v B B b b b v x x c x p 7 ; = ; 2 4 > ",
"V Y $.] N y i x A P T T U P L L F S b a 6 $ @ = 7 x D D V x h z h a e 9 t h v c x h k M B M v l c v v k d u p h x u 2 $ $ & & & ",
"x K ( P a 4 t b K T R ) _ T Y Y P L D b p 6 2 8 h S K D S b h h h u 4 : 2 7 r u f h c V C C v h h v v h w 2 6 e h p 3 = : * O   ",
"p V P S t 4 a D Y Q [ | [ R Y P Y Y P D b h h x D L L K F S N h p 7 : = ; 2 7 e f x v M C C v h h c v d 2 $ ; 4 w 7 3 5 t 8 &   ",
"p b D V y w x P R ] | [ _ Y L F U Y P D S V S D K K F S V N v p 4 * & * 2 3 7 u h v c k v b c k k h x u ; = < 2 < ; 3 p b h 4 X ",
"c C L D h p b P R [ | ) T P D D P U L S V V S D K C N v x h f 7 = $ ; 7 w 7 7 u h v k h h k k c k d p e 2 2 7 7 = ; e V F v 4 X ",
"V F U F h t z A I R _ T U F S V D S V v c v v N N h p u u u w ; $ * 7 t u w 7 u k v x h h x z h p e w w t t w 7 : w z D S p *   ",
"S L U S t 6 y b H I T P F S N b z a u p f h f a u e 6 6 6 2 ; $ $ : t a p e e p h k h h c v h a q 7 6 e f a 7 2 7 h V C z 4 .   ",
"N V V h 4 ; e b F L F S S V h u w 2 < 7 p h a 0 2 * * : < ; ; $ % 2 u h f p h h c l h h v M h u 3 2 q f v p < , u V V h 8 & X   ",
"u u e 7 2 5 a b S C N v v k p q , $ $ 3 p f e 2 & $ * : < < 2 2 2 q p v N N V V V b l h l v h r 2 q x S N e < 2 h V v e * X     ",
": * * 2 8 z V S V b h h h h r 5 ; $ $ 6 p a 8 = @ & 2 7 7 w e u u p v D P P L F S V v h h h p e 7 d D L v e w p v v p 2 o       ",
"o . $ 4 a V D S V b v v v c p q 6 < : 6 w w 2 $ O * 7 t u p f h h v D Y ] ! P L F C v h p u e w e h S D v x N S v p 4 & X       ",
"  . * e z m V b S D D D D V k u w 7 7 5 4 < = @ O * 7 u h h h h x S P _ %.( P F D V c d u r e w e u f v V L Y L z 5 @           ",
"  o 4 a x v b V D L Y U L S x d u u p e 6 ; $ @ O & 2 e d f f f x D T o.$._ P D S V k d p r e e 7 q p V Y O.X.D r &             ",
"  $ e v b b m D F P T Y K V x f d f f p w < = @ @ $ ; 6 e r u p b L _ @.:...U D C b k h d p e 7 < e N E :.@.L a 2 @ . O O o     ",
"  * a Z S V Z F F P Y U F V v h h h h h u 7 < = = * ; 2 q w r h V U ] %.5.%.T F S b k g g d w 2 2 p S ( ! D f 4 = $ & = & O     ",
"  4 Z T P A Z S D F P L K D V v x h h h u 7 6 2 6 6 7 7 7 e g c D P _ @.@.@.Q P D V h f p w 2 2 w h V b a 8 2 * & ; 4 4 * O     ",
"$ t P | T D Z S D F F F F D D V M l h f p e w w u r e e r p k v C F T R T T T P F V h p u w 2 2 t f h t 4 * & * : 4 e e 5 * o   ",
"* h Q 1.T D A A F F F D D D F D V b h h h p e u p p u r p h h k z V F P U P P P F V h p r 7 7 7 w r t e 5 : = * 2 e h h a 5 &   ",
"* a T *._ P F L K F D S V V S S V M k k x d e u f h p u d h p d a c V D F F F K L L C h e 6 w p u r w 7 8 4 * * 2 t v V b t * X ",
"@ e K @...T Y U L F D V v x v v c l h h h p r u h x h f h h u r h c v V A D F L T T L z 6 < e x V h w < ; * = ; 6 p c V b y - X ",
"O 8 F @.$.[ T U K D S N h p d h h h d u u e e p x b b v b k d p h c b V D K P U E T F a < , p V D x 7 % @ ; 5 e r u f h f w * X ",
"- u K @.*...Q U D S V v d r p h h h p e 6 7 r h N C S D S C n c h v C D F K U U U F b t 4 8 x D V d 6 = = w x V x p r r r 7 ; o ",
"1 i F _ _ T U L D S V x p r p h h h p 9 2 5 p x V S F K D S C b v V D D A D P U L S h t e h S D v u 6 6 w x F L C d e e u e 4 & ",
"5 a Z P P L K K D V x h d p g h j z h u r u g k v V S S v h z b S F L D b b D L F A b v b D F D c p u u g V K L S x p h v x w < ",
"- w z S F K L K D N x h h h l M V v h p h h h h k l c h e e a x V S D V x b A H F F F F F P K D M k h h h M C C S b v S K S f w ",
"$ 2 p N F P U L S N x h h c C D F b p u h v c h d p u 7 < 2 e h z z x v N S F F F K P P P L K D C b c h d h x c c v V L Y K v p ",
"@ 6 x L T T Y P S v h f h M D J G v u r h v c d r e 7 3 2 3 w t 7 w p b D L L F F K P P L F F D V b c d e 7 e p p x D U Y K v p ",
"& u L $.O.E L S b h p u p b D F C h p h v V v p e 7 6 7 e e w 6 = 2 u N K P L D D S D F K F S C b v z p 5 : 2 4 w h D Y Y D f 8 ",
"7 v ! 8.O.P V h a e 7 7 w h S S c d d c V C v p 7 7 w r u u e 5 2 7 p N L Y P F V v v V D D C b z h p 8 : $ % * 4 t v D D v t 4 ",
"u V T $.! F z t 7 : * * : t V D v f h b C S v p w e u u e e u p p t p z D P L S z a f v V C M c h p 6 & O o $ * : 7 f b b f 8 < ",
"t v P ] E D f 5 * & @ O $ 8 N F V x c C K J M u u u u r e r f x a t 8 e h N b h w w p x v c h f f e =     o % ; * 4 p z z t 2 & ",
"8 h L o.@.P f 4 * O O O O 4 b L K S S L Y F h e u u e w u c x u 2 : 4 8 7 4 4 2 : 7 p h f p p u u 4 @     . & * * 4 p z p 4 $ . ",
"7 v ! 1._ V w * @ o X X . 4 x F L F S K L V u 3 7 7 e p x v h w * 2 e e : . . o & 4 u f e w q 7 4 * .     X @ & & 2 w t 7 & X   ",
"e S @.$.F e * X o X     X * i Z D S b v v a 4 $ $ : e x b v u 7 7 a b z -     X & 2 t t 7 2 2 < @ o         X X o & < < & X     ",
"e b P F t &     X X       $ 4 p x h p e 8 4 &     & u b v f u u z V A h *     o $ * 4 4 : * & O                   . @ O X       ",
": 5 e 7 &                 X O * w w 4 * * & o     * y z a e p h x x f 7 O     X o O O O O O X                       X           ",
"o o o .                       X * * & O o .       & 4 8 2 : 7 t e 8 4 & X         X             X X                             ",
"                                  X X             X O O . o $ & & $ O X                       X o o X                           ",
"                                                                                              X & & o                           "
};
