/* XPM */
static char * wall_S_xpm[] = {
"64 64 107 2",
"  	c #2E2F2F",
". 	c #2A2B2B",
"+ 	c #292929",
"@ 	c #38393A",
"# 	c #414343",
"$ 	c #464646",
"% 	c #404141",
"& 	c #393A3B",
"* 	c #363738",
"= 	c #313032",
"- 	c #373839",
"; 	c #48494A",
"> 	c #4D4D4E",
", 	c #505051",
"' 	c #4F5050",
") 	c #4E4F4E",
"! 	c #474849",
"~ 	c #303130",
"{ 	c #2C2D2E",
"] 	c #2C2C2C",
"^ 	c #2A2A2B",
"/ 	c #3F4040",
"( 	c #474848",
"_ 	c #454747",
": 	c #434445",
"< 	c #2A2B2C",
"[ 	c #4A4A4B",
"} 	c #3C3D3F",
"| 	c #353737",
"1 	c #515252",
"2 	c #535454",
"3 	c #535354",
"4 	c #4F4F50",
"5 	c #3A3B3B",
"6 	c #343535",
"7 	c #313232",
"8 	c #313334",
"9 	c #4D4F4F",
"0 	c #4D4E4F",
"a 	c #3D3F40",
"b 	c #323435",
"c 	c #2E2D2F",
"d 	c #545555",
"e 	c #545455",
"f 	c #3A3C3D",
"g 	c #555656",
"h 	c #565756",
"i 	c #575758",
"j 	c #4B4D4D",
"k 	c #424344",
"l 	c #393B3C",
"m 	c #565657",
"n 	c #545656",
"o 	c #2F3031",
"p 	c #2D2E2F",
"q 	c #5A5A5B",
"r 	c #595A5A",
"s 	c #444546",
"t 	c #444647",
"u 	c #515152",
"v 	c #353636",
"w 	c #5B5B5C",
"x 	c #343536",
"y 	c #59595A",
"z 	c #525353",
"A 	c #4E4E4F",
"B 	c #4A4C4C",
"C 	c #515353",
"D 	c #505152",
"E 	c #3C3D3D",
"F 	c #585859",
"G 	c #383B3C",
"H 	c #525454",
"I 	c #484949",
"J 	c #4B4C4C",
"K 	c #404242",
"L 	c #575859",
"M 	c #3F4041",
"N 	c #434647",
"O 	c #3D4141",
"P 	c #565758",
"Q 	c #3B3D3F",
"R 	c #303132",
"S 	c #505151",
"T 	c #404344",
"U 	c #404444",
"V 	c #2D3130",
"W 	c #333637",
"X 	c #3B3E3E",
"Y 	c #2D2E2D",
"Z 	c #464949",
"` 	c #3B3E3F",
" .	c #424443",
"..	c #3E4142",
"+.	c #555657",
"@.	c #4E4F50",
"#.	c #535555",
"$.	c #333333",
"%.	c #3B3B3D",
"&.	c #363938",
"*.	c #515151",
"=.	c #353839",
"-.	c #373938",
";.	c #303233",
">.	c #414443",
",.	c #333335",
"'.	c #3E4141",
"      . + +   @ # $ % & * = + + + +   - % ; > , ' ) ! # * ~ { + + + ] ~ =   ^ + + = / ( _ _ $ _ _ : @   ^ + + ^ { < + + + + + + ",
"~ ~ ~ < ^   * : [ > [ : } |   ] ]   - # [ ' 1 2 2 3 4 [ % 5 * = ] ^ { 6 * 7 < ^ 8 / ( > > > > 9 0 ; a b c ^ + + ] ] ] ^ + + + + ",
"6 7   ]   - $ 1 d e 3 4 ( / & | | f $ 9 3 g h h h i g 1 j ( k l ~ ]   * 5 6 ] ~ # , e d d e e m n 9 k @ 8 c ^ ^ ] o 8 o . + + + ",
"6 ~ p ~ & ( 3 q r i g 3 > ( s k t [ u d e e e e e e e 3 , j ( % v   ~ 6 * 8 { | > w q m 3 3 e m n > % | 8 ~ p   ~ x @ x ~ . + + ",
"{ ^ ] v $ e q y m z A > > B > 9 C e e D > > ) > > [ [ [ [ ( : / & ~ { ] p ]   E , w F u B [ B > 9 t *     = 8 6 - f } G x o { ] ",
"+ +   } 4 q q e 4 B _ ( B > 9 1 e H 9 ; _ I J [ s / a K # # / f & 7 ] + + ^ 8 # z L C B s k : t t a 8 ] { 8 - } K K K } @ x 8 ~ ",
"+ ] 6 k , i m , ! $ : _ B > > > > B t # s [ > [ % @ - f M # % E @ b   + + p 5 B g g A ! $ k % # # a * ~ = | f # _ : K a } & | b ",
"+   * # [ A 4 B s # k ( B B ; $ t : / / s j 4 B # & * f # _ : % 5 v ~ < < 8 k C i 3 B _ ( $ / # N : a * v - } k t k M O a f - v ",
"] ~ * f a k _ _ K K : ! j B ( t : # # # $ [ > J : / a # ( [ ! : a @ ~ <   f j P n , ; t _ t # t ; ; t f b 6 l % a Q O # a f @ v ",
"p R | | 6 - } % a / k _ ; ; t k : : : t ( B > [ _ : : ( B j ; t K @ R p 8 K S P D ; : t ( ; ( ! j j _ f R o - } Q Q O T % l v R ",
"p R x b o ~ * f } } % # t t : : $ $ _ ( [ > > B I _ ( ; ; ; _ N K @ R o | t , D ; K K _ ; j j B [ ; : @ p p - a a a O O } * ~ < ",
"] ~ | | 8 b @ a K / K K k : t ( ; [ [ [ [ > > > B ( _ ( _ t : : # & b b f t ( : % a # ( ; [ B ; ( t # @ p p @ K U M f @ | R ] + ",
"{ R - l & f K t _ t t t t ( ( [ > A > B [ B > 4 > [ _ t t N N t t / * * K : / f f / : ! ; ; ( t # : : a 8 o G k : a v V ] . + + ",
"R - K t t _ ; [ ( _ _ _ I [ > ' , 4 > [ ( [ > 4 > [ t : : : t ( ; : f f : : a f } # t ( [ ; _ : a # t K | b l k # f W p + + + + ",
"- K j S j ; ; ( : # : _ ; > 9 , A > [ ( _ [ > > B ( t : : : t ; [ _ a E : _ : # : _ ( ; [ [ ( : / M K } - | l % M X @ 7 + + + + ",
"f _ C e j t # K / / k _ [ > j j B ! ( _ ( B > > I ( _ t _ t ( B j ( / a t ; ; ; ( ; ; [ [ ; ! : M a & @ - & } % a a E | Y + + + ",
"E t 9 9 t f l } a k t ! ; Z N : : t $ ( [ > > j ! ( [ [ ( ( ( [ j ! K K ( B [ I ! [ B j ; t T K a l x 7 x l a K O O a G ~ . + + ",
"E : ; ( E | @ a k t _ _ _ : M O k : t _ ; j j [ ( ! B [ ( ( _ [ j ! k k ! B I _ ( [ [ ; N % ` ` a l b R v f a % a a f * ~ ^ + + ",
"E : ( t f @ a : _ ! _ : k a Q a : _ ( _ ( ! ( _ t _ ( _ $ $ _ ; [ ( t t ! ; _ $ _ ! ( t K Q G l a f | b | l l f G G @ v ~ . + + ",
"E # ! _ K / : ! ! ! : M } l f O t ; ; t : k # # k : : t $ $ t :  .# # # # k s $ ( ( t # a f G f a a l | x W x - G l G @ | = < + ",
"E k [ j ( _ ( ! ; _ k } @ | @ a t ! ! : K a } a a K : ( [ ; : E & f a a f E k ( ! ( t K Q G l a a a l v 8 o R v l Q a a M f ~ ^ ",
"f # > C , j ; ( ! _ k } @ | @ a t _ : K / f @ @ f K _ j , 9 ( / l f a E @ f t [ ; _ : / a Q a ..O a f @ W R R b | G f K t # * Y ",
"f : , +.3 > ( $ _ ( _ # a f E K t _ # a f | 8 8 & K ( 0 1 D > _ K M # M E K ; j ; : % a a K U K # M % a l @ | W b b v f / a @ 7 ",
"/ ( C P z [ $ : $ ! ; _ : % K t t t K l * R { p * / _ j @.9 > ( t # # K / N B j _ K a O a # : U # K K K % % a G b R 7 v @ @ * 6 ",
": B e #.j k % K s [ j [ ( _ _ _ _ : / & b ] ^ ] x a _ ; _ : : k # M f a K N _ t k a O K K K U U # # # K % % M % f | R o R b 6 $.",
": j C , k 5 %.% $ [ > > B [ ; ; ( t # E x p { o | % _ _ : % a / a E @ &.& a K M % a O T U T K ..M K K O Q l f a % l b p p       ",
"% ! @.[ E 6 & # ! > ) ' 4 > j j [ ; _ # f x b * a t ! _ t # a a a l 6 7 b | G l } a M : N N K a a K K a - b x @ a f W o 7 ~ ] + ",
"f : [ t & 6 E _ j A , *., ) j [ j j [ _ # a a % _ ; ; ! ( t k a f | 7 o R b | @ } % K T N N K a a M K Q b p R 6 - | W v & *   + ",
"f # _ : 5 - % [ ) , *., 4 j ; ( B j [ _ t : t _ ! ! ( t : k K f 6 ~   ~ b W | l a K M O K # M O O a % l R o 8 b 8 R W f # a 6 ^ ",
"M N ; _ a f # [ ) , *.' > [ _ _ [ B ; t : : t _ ! N k K % a } | o p R | - | | l a K O a a O O M O Q f @ b b | | o R @ : ( K 6 ^ ",
": ( B ( a & / $ J ) 4 > B ( t : _ t : K M K K k k a f l l l - R p ~ | & l - | l O K % a a % / a f @ - - & & - | 7 - / _ t f ~ + ",
"t ; B t & x 5 # I J > [ ( t k # / E l f } a } E l @ x x x b R p p 7 & E f @ @ f a O a a M K a E =.| x @ } E | b | a : N / 6 . + ",
"k : : a 6 R @ # ( ; ( t t : a l - b 8 | f a E -.b ~ ~ 7 8 R R p V b l a } f a a M ..a a K T a l W b =.} K f 8 ;.l : : a *   ^ + ",
"l l @ | b v E # t N k K K O f =.;.p p W f } @ b   p ~ 7 8 8 b b b =.f K k k : : : # ..a ..K a G b =.% t k @ 8 b a : K @ ~ ^ + + ",
"7 ~ ~ b * / : t : # a a a a G v R p p x f E * o {   b | | - @ l l f K _ [ [ ; ( t : K a a a f @ | Q _ ; K @ - f K K f b < + + + ",
"< . p 6 E : _ t : # K K K M f =.x 8 7 x - - b p ] ~ | & l f } a a K _ j , 9 [ ; ( N K a f l @ - @ a t _ K % k t K f 6   ^ + + + ",
"+ . ~ @ /  .: # t _ _ _ _ : O l - | | v 6 8 o { ] ~ | l a a a a % t [ 4 z @.[ ( _ : M Q l G @ - @ l } K : ; j ; / v { + + + + + ",
"+ < 6 E % K # : _ ; j B ; t % Q l l f @ x R p { ]   b @ Q } } } % _ > D C 4 [ _ t : O Q f G @ @ | =.f : j 1 S _ G   + + + + + + ",
"+ p @ K # #  ._ ( [ > j ! : % } Q } } f - 8 o { { p R x @ G l f # ; 4 1 3 u B _ N # O a Q f @ | 8 @ k 0 3 1 ; E b { . ] ] < + + ",
"+ ~ E s t : s ( ( [ j B ( : K a a a a a l | 8 o o ~ R b =.- G a : B , z e z > ( t # O ` ` Q - b b f t @.9 _ } 6 o p   o   ] + + ",
"+ 6 s > [ $ s t _ ( [ ; ! _ : K % a a a l | x b x x | | | @ ` M _ [ 4 1 1 1 A [ _ : a } f - b b - a : # E * b ~   R 6 6 ~ ] + + ",
"p & [ *.> _ s t _ ( ( ( ( _ _ : T ..a } f @ - - l G @ @ G f O K N ( > ) > > > [ ( : a f l - b b & } a & 6 ~   ~ 7 6 @ @ v ~ < + ",
"~ a A e > _ $ $ ( ( ( _ _ _ ( _ : # a a a f @ l f f l G f a a O / : ( [ B [ [ [ ( : a f G | | | - G & @ v 7 o ~ b @ a a E v   + ",
"~ E > 3 4 [ ( ; ! ( _ t : : t t : T O O % Q @ l } a f l Q a f Q E M : _ ( ( ( ! ; ; N a @ x - f l G - | * 6 ~ ~ b & K : # & ~ ^ ",
"{ @ ! 1 u > j B ; ( _ : K % K K M ..a a a f G l a % a } a a l G a M K : $ _ ( ; > > ; / x 8 @ % : a - 8 R ~ o R x f M : # 5 = ^ ",
"] * ( 1 C , > B ! _ t k a f Q a a a Q l l @ @ f % # # K # O Q f a M # : _ ! [ B 0 > ( E 8 ;.f : _ % | V { R v @ G l } a } - ~ ^ ",
"= l ! 1 3 u A B _ t : K Q G f a a a f @ x | G a k N t _ t N >.M a K N _ ( ! B B B ( # & 6 * % _ : Q x o o - % : % f G G G | R < ",
",.%.( 4 4 > B ; _ t : % f G f a a a f &.b v f % : t ( ! _ t N # K : _ _ $ _ [ B ; t a & @ a t _ K l x x - % ( ; N Q @ @ l @ 6   ",
"v E s [ [ ; ! ! _ : % a Q f ` a './ a l G l ` O K : t t K a / # t ( ; _ # # _ ; ( $ # K # _ ( _ M f l l ` : ! ; t % f a K % - 8 ",
"= - / t ( ! ; ! _ k % a a a ..T : K a f a a a a O ..M a @ @ E % : t _ : % # $ I ( ( ( ( ( [ ! _ T O a a a T N N t # K t ! t } - ",
"p b f k ( [ B ; t k % a a M N _ ( # f l a K M a Q f l | 8 b @ a / / % K k t ( ( ( ! [ [ [ ; ! _ N # M a Q a % M M K : ; j ! K f ",
"{ x % ; > > j [ t K a } a T _ Z Z K l G a K M Q G @ | W b W - & | - f # _ ; ; ( ( ! [ [ ; ( ( _ : # M Q @ | @ f f % _ B j ! K f ",
"  l ; C 1 0 ; t # a f l f # _ ( N a f a K : K f @ | x | @ @ - x o b l k ! [ ; _ _ t _ ( ! ( t N # K / f v 7 b 6 - a _ j j _ } * ",
"| K 9 n 1 [ : a E @ | | - a t t M Q Q M : N K f | | - G l l @ v b | f k ; j [ ( : K K : _ _ N # / a f * 7 p V ~ 6 & K _ _ K & 6 ",
"l : > C 9 ( / & | 7 ~ ~ 7 & : _ K } a # N t K f - @ l l @ @ l f f & f / _ [ ; t / E } K : N T M a f x   ] < p ~ 7 | } # # } * 8 ",
"& K [ , 0 _ } v ~   { ] p * k ( : % M N ! Z T l l l l G @ G } % E & * @ a k # a - - f % K M a } } @ o + + < V R ~ 6 f / / & b   ",
"* a ; D 1 [ } 6 ~ ] ] ] ] 6 # ; ! t t ; j ( a @ l l @ - l M % l b 7 6 * | 6 6 b 7 | f a } f f l l 6 { + + .   ~ ~ 6 f / f 6 p . ",
"| K 9 e 4 : - ~ { < ^ ^ . 6 % ( ; ( t ! ; : l W | | @ f % K a - ~ b @ @ 7 . . <   6 l } @ - =.| 6 ~ . + + ^ {     b - & |   ^ + ",
"@ t 1 C ( @ ~ ^ < ^ + + ^ ~ %.s _ t # K K E 6 p p 7 @ % # K l | | E # / = + + ^   b & & | b b 8 { < + + + + ^ ^ <   8 8   ^ + + ",
"@ # [ ( &   + + ^ ^ + + + p 6 f % a f @ * 6   + +   l # K } l l / : $ a ~ + + < p ~ 6 6 7 ~   ] + + + + + + + + + . { ] ^ + + + ",
"7 v @ |   + + + + + + + + ^ ] ~ - - 6 ~ ~   < + + ~ 5 / E @ f a % % } | ] + + ^ < ] ] ] ] ] ^ + + + + + + + + + + + ^ + + + + + ",
"< < < . + + + + + + + + + + + ^ ~ ~   ] < . + + +   6 * b 7 | & @ * 6   ^ + + + + ^ + + + + + + ^ ^ + + + + + + + + + + + + + + ",
"+ + + + + + + + + + + + + + + + + ^ ^ + + + + + + ^ ] ] . < p     p ] ^ + + + + + + + + + + + ^ < < ^ + + + + + + + + + + + + + ",
"+ + + + + + + + + + + + + + + + + + + + + + + + + + + + + + + + + + + + + + + + + + + + + + + ^     < + + + + + + + + + + + + + "};
