/* XPM */
static char *_bde3f5282af490dbaf1bf755e267b94lNqHuRCq1oFcOBkn[] = {
/* columns rows colors chars-per-pixel */
"64 64 139 2 ",
"   c #010202",
".  c #060807",
"X  c #050609",
"o  c #06090A",
"O  c #0A0C0D",
"+  c #0E100F",
"@  c #11110F",
"#  c #0D0E11",
"$  c #0E1112",
"%  c #121415",
"&  c #161817",
"*  c #181816",
"=  c #141619",
"-  c #18171C",
";  c #16191B",
":  c #1A1C1D",
">  c #1E201F",
",  c #1C1F21",
"<  c #201F24",
"1  c #1E2223",
"2  c #1F272A",
"3  c #222425",
"4  c #262827",
"5  c #242628",
"6  c #262A2B",
"7  c #2A2C2D",
"8  c #2D302F",
"9  c #272F31",
"0  c #2C2E31",
"q  c #2D3233",
"w  c #2F3837",
"e  c #2F3639",
"r  c #323435",
"t  c #363837",
"y  c #333639",
"u  c #353A3B",
"i  c #3A3C3D",
"p  c #3E403F",
"a  c #363E40",
"s  c #3B3E41",
"d  c #3D4244",
"f  c #3E4847",
"g  c #3E4649",
"h  c #3E4849",
"j  c #424445",
"k  c #454847",
"l  c #434649",
"z  c #454A4C",
"x  c #4A4C4D",
"c  c #4E504F",
"v  c #464F51",
"b  c #4B4E51",
"n  c #4D5253",
"m  c #4F5759",
"M  c #525455",
"N  c #565857",
"B  c #545658",
"V  c #555A5B",
"C  c #5A5C5D",
"Z  c #5B5E60",
"A  c #5D6162",
"S  c #636365",
"D  c #626365",
"F  c #616566",
"G  c #636466",
"H  c #616767",
"J  c #646466",
"K  c #646567",
"L  c #626465",
"P  c #666867",
"I  c #666668",
"U  c #666769",
"Y  c #646769",
"T  c #676B6C",
"R  c #65696A",
"E  c DimGray",
"W  c #68696B",
"Q  c #69696B",
"!  c #696A6C",
"~  c #6A6B6D",
"^  c #6B6B6D",
"/  c #6B6C6E",
"(  c #6C6C6C",
")  c #6C6C6E",
"_  c #6A6C6D",
"`  c #6E706F",
"'  c #6E706F",
"]  c #6D6E70",
"[  c #6C6F70",
"{  c #6E7273",
"}  c #6E7172",
"|  c #707173",
" . c #717173",
".. c #727473",
"X. c #727274",
"o. c #727375",
"O. c #737476",
"+. c #727677",
"@. c #747474",
"#. c gray46",
"$. c #747675",
"%. c #747577",
"&. c #757577",
"*. c #727375",
"=. c #757678",
"-. c #767779",
";. c #757778",
":. c #75797A",
">. c #77787A",
",. c #767A7B",
"<. c #777B7C",
"1. c #75797A",
"2. c #78797B",
"3. c #7B7B7B",
"4. c #797A7C",
"5. c #7A7B7D",
"6. c #7B7B7D",
"7. c #7A7A7C",
"8. c #7B7C7E",
"9. c gray49",
"0. c gray50",
"q. c #797A7C",
"w. c #7C7F80",
"e. c #7F8180",
"r. c #808080",
"t. c #818183",
"y. c #828385",
"u. c #858587",
"i. c #808183",
"p. c #858688",
"a. c #878789",
"s. c #88888A",
"d. c #88898B",
"f. c #898A8C",
"g. c #8D8D8D",
"h. c gray57",
"j. c #919193",
"k. c #929292",
"l. c #949496",
/* pixels */
"O # O       . 3 u i t 4 ; O                   7 M ( C j 7 & O       O % : % X     - s M B M x n x l 7 $                         ",
"= = $ X   # 4 j N C B l r 1 $ # O % % O     X 7 V @.` C l r 5 % X X O : 4 - X X : i B J I G D G A M u : O X       X X           ",
"3 - % O % 7 N @.0.t.6._ B s 0 7 7 r r 3 o   X 7 V 3.e.@.J B z q - O % 4 r 3 O & l ~ 6.3.,.=.3.6.,.G l 7 - $ X     O % + X       ",
"3 - % - r C 0.k.k.g.u.6.~ C M M N C C j : X o 4 x W @...~ D V d 5 % % , 7 : O 4 D d.f.8.=.+.3.6.,.A s 4 - # X   o : 3 : + .     ",
"O o O 4 V t.k.k.p.6. .) W I W ] @.,.+.V r & % : q j x M M M b i 6 ; # O % O $ u ~ f.t.~ D C A G A z 6 % O X X . - 3 7 5 ; $ O X ",
"    % i @.l.k.t.o.D V C J ~ o.@.<.,.} C j 5 % + : 3 7 r y t u r 7 : O     X : x  .y.o.C b l l z z t : o       X & - , - % # O X ",
"  O 3 b =.d.p.o.Z M n C G ~ _ W T G C n z q & X O % : 3 6 7 0 7 7 1 $     O r Z 6.6.I M b l i a l u 3 O         X X o X X       ",
"X $ 7 b D ) o.G M x b C J I A V V n z l x i : X . + & : 7 r r r 7 1 % X X - l ] w.o.Z M n z i d x i 4 O               X X X X X ",
"O ; 7 u d n V C x l n A P G C n n n z x M k 7 % X X & 7 r i i u r 4 & O $ q V ,.;.~ M x n x l l c i :     X o O O O $ & ; ; = % ",
"# ; 6 7 6 0 i l d d x C A Z V n n n n M C c t : .   O > r i s i t 4 - # : d G +.P M x n N M l s i 7 & X   o % : : , 4 7 7 5 ; % ",
"X = 5 5 = ; 7 u i d l x n M n n M V C C C V k 7 O     % 5 r t t t 4 % % 4 x G P n d l B V b i 4 : * & O X X & 5 7 0 t u r 3 % X ",
"  O 1 5 1 1 y d l l z z n n M V A G G C N C M u & o + : 3 4 7 q r 7 - - r x n z i u x V n i 4 % X O % % X O 3 r t t y 7 3 & X   ",
"    % 5 7 i b M V M M V V V C A ) } _ Z M N V x 4 3 7 i t 7 5 4 0 7 3 7 j z r 3 7 i b M i 4 - # # O # O X - 0 i u q 5 ; O X     ",
"O O % 5 y x A H Z V V C A G P _ ) ] ~ C x c C V u r j c j r 5 1 4 4 : 7 l j 7 : 7 s x s 6 - & : : : % X   $ 1 0 7 5 & X         ",
"3 3 5 6 q l V A n b n V D ~ } ` D A C B x x V N j j x M l r 5 : , : & 3 r i r 0 r u i q , : , 7 7 4 ; O     O % ; & $ X         ",
"t t t 0 6 q d z z l n V G _ _ D B b x x x c M x x x V N l t 5 - % O O % : 6 q r r 0 7 6 , 1 7 r y 7 ; O O     X   X O o         ",
"a l l i 5 : 5 y d n V Z A Z M b z l s l x z j d l N Z C x u 5 % o . O % O @ : 3 3 3 4 3 3 5 0 y y 6 : $ # - - O X               ",
"d b n a , O % 7 l M Z Z V n z a d i i d z d y q j M C C x i 6 ;   . % : * & * : : & : > 1 6 0 q y 6 : % - 5 3 : O X             ",
"d n C z 5 O = q l M V M b l d a d d d d d y 7 7 i x M M x l r ;   o : 7 7 7 4 : & O O ; 1 6 0 0 y 0 1 , 5 6 4 1 % % o           ",
"i b A V a 5 5 7 i l b x d i i a d x x l u 6 3 6 r s l x n x r & X o 1 y u t r 3 + . O ; 6 0 q q y q 6 1 1 , , 3 5 1 & # % % X   ",
"i x G _ Z j r 3 5 0 i d u 7 7 y l M N j q 1 - , 7 t j M N x y - X O , 0 7 7 7 > X X = 6 q y y i a a q 5 ; = = 1 6 5 1 5 q 7 %   ",
"i V ,.w.J l 0 , ; : 5 6 6 5 6 i M V M i 6 - & - , 7 i n C B s 3 X O 1 0 4 5 7 7 ; : 6 y i a d d l d u q 5 ; ; ; 1 : , 0 s i 3 O ",
"i C 3.+.x 7 4 4 5 : - % : 4 r z V M s 7 : % # # - 3 7 j N C x 7 O O 3 r r r i u y y i a d d z v z z l d y q 5 , ; = ; 6 r t 7 - ",
"7 j C M r : 6 r t 4 - o # 3 t x x d 7 - % o X O % : 4 r j M x 0 # O 5 i i s l a d d d l g z v n b z z z l d i 0 , = = , 5 7 7 4 ",
"$ & > 3 4 7 t j x s 6 + o > t p r 3 : - $     O ; 4 6 7 7 0 0 1 O O 1 u l l a y e a g z z z z v v v v z d d l d i 6 ; = % : 1 : ",
"    O ; 3 q s x C B j 7 ; : 4 7 1 1 4 4 : O X = 7 i r 7 1 : , & # X ; 6 y y 7 5 5 e d v n n z h g z z g u e i d l u 1 $ $ % $ $ ",
"  O 3 7 4 7 i n G ~ J n r : & & - 7 d j u 5 : 6 d b z y 3 - : & O X $ ; - - % = , 0 d n V n z d d z z a 0 1 2 q d i 5 ; : ; O X ",
"# 5 j z 0 4 i V I +.=.~ M 7 % O 4 j B V n d u d M Z V l 0 1 - % X   X X X X O $ 1 q d n m n z d d z z i 1 $ = 5 0 6 5 6 y 7 $   ",
"4 u M b y q z A _ ,.6.+.D u : % 0 x Z C V n n M V V M z u 4 % X X       o O # - 5 y d l z l l f d g g y ; % , 1 : ; 5 i x d ,   ",
"j M D V d i z Z } +.,.=.W x 3 & 7 x V M n n V V n x l d u 7 % X     X O % % $ - 5 y a d d d h d d a i 0 1 1 6 5 % ; q n C l ,   ",
"M A _ Z d y d V I }  . .W x 4 % 3 u l z z z z z l u q q 7 5 % X     % : : % O % 1 q u d f l f d i q 0 0 q q 7 5 : 7 l V M t %   ",
"N A P M i 6 y n A P W I C j 3 O $ 1 7 i d d d u q 5 1 : 1 , % X   . % > 5 - O O : 0 i d l z f d 9 5 5 q a a 7 1 7 d n x i , X   ",
"x c n d 1 ; q z V A Z M x t : . O $ - 6 y u y 7 : ; % & & & O X   X $ 3 0 4 % O ; 7 i d l z l u 2 1 9 d z i ; , y x l q ; X     ",
"y y q 7 1 5 a b n M b l i 5 O   X O % 1 7 q 5 : $ % & & % O X   X # ; 7 t 7 ; $ : 7 y a g z d q 1 9 l n b y 1 1 i d q = X       ",
": ; ; 1 q d n V n z d y 7 : O o O $ = , 5 5 ; O O & , , % X X X % , 7 t u 7 - & 3 7 y a d d a 9 5 d Z A z r 0 y y 7 % X         ",
"X X $ 5 d n V V n d q 5 1 : ; & : , , 1 1 ; #   X % 1 , % X O % : 7 t i u 7 , : 5 q i a a y e q 0 d V Z n l l i 4 =             ",
"  X ; q l b n n M i 5 ; : 6 7 7 7 7 9 6 1 = O     O - - # O % 1 4 7 r u t r 7 3 5 q y u u q q q q y i x N B M t - X             ",
"  O 5 i l x n M M i 1 ; 1 r i i y y y q 5 ; # X   X O O # $ : 6 7 r u u r r 8 7 6 7 q y u e e 0 6 0 t x M M j 3 #               ",
"  # q z z b M n d q 1 1 7 t s d a d a i q 3 % O       O $ ; 5 0 t i i i u t r 8 7 6 5 9 q e 0 2 ; 7 l B x t 3 # X   O O O o     ",
"  = a M M M M z q 5 6 q u s l l d d d d i 7 - O       # ; 1 q u d j j i p p t 7 5 3 , 1 6 9 2 = = 6 j l r - o   . o % & % O     ",
"X 4 M ~ J N j r : - 4 s x n n z g d d d y 0 < % X X O - , 6 a l x i 8 r j j t 4 : & % = = = $ $ = 1 7 6 ; O X   X % 1 5 ; X     ",
"$ y G 3.P x 0 - $ - 6 j M Z C V v h d d i 0 1 % # # = - 1 6 q a t 7 3 4 r r 4 & $ % - % $ # # $ ; ; , ; O X X X O : 8 q 6 % X   ",
"- j o.t.D i : O O ; 7 i n C V V n z d d d q 3 = - - , , 1 1 1 5 3 : - - 4 3 % O % : 3 - % $ ; 1 1 1 , ; % O X O $ 5 u l i 6 $   ",
": d ] =.M 7 - & : 3 6 0 i d d d d g g l l i 5 ; 1 5 1 : ; = $ = : , : 3 7 4 1 1 4 q 0 , % % 1 q q q 5 : & O X X = 7 l n z y ;   ",
"$ t D ~ x 8 7 7 r q 4 3 6 1 ; : 1 q d l d u q 6 0 0 5 ; = % ; 1 6 q y i l z j k j j r 1 $ # 3 y d u 5 % O X X O > q l n z y ;   ",
"# q C _ V l j x j u 5 , , %     O 1 y a u y u y q 6 3 3 6 q q q u i l n C G J D M j 8 : O O 5 i l u 3 O   o - 3 6 q u d a 7 -   ",
"- r Z o.) J D C x u 3 , 5 : O     = 7 q 7 9 w y 7 2 6 u z b x d d l n V C P W L x r 3 & O & 7 r u 7 ; X X - 0 i u y q y y 6 ; O ",
"3 i C o.@. .W D c t , : 7 7 , # X $ 5 7 1 1 9 q 7 7 u x M V M b z n V V M C L C j 7 : ; : 4 r r 7 1 % X O 6 l M b a q q y q 1 = ",
"5 u n A J G D A n y ; = 8 d y 5 % % 1 6 5 1 , 2 y d b b b z l z n Z A M x M V N j 7 3 3 7 u u r 5 ; % $ = q x V M l u d z l q 1 ",
"; 7 l M V Z A A V u 1 : q d z l y 4 1 : 1 1 , 5 i z b d q 0 u z n V V n x b N N j r r u t r 0 4 : ; % ; , y x M M x z n C M i 6 ",
"$ 1 u b V G H G V d 7 5 y z V Z V i , $ ; 1 6 y a a i 6 , 1 q d l d l z n V V M p j x x t 4 : : - ; : , 5 q d z l z n A P C d 5 ",
"O 5 z G _ [ P G M d y q u x V A C p : $ ; q i d y 0 5 1 , 5 q e 6 7 y b C H A x r r x c t : + % - 5 6 4 5 6 7 y u z V P _ V u 1 ",
"% u G w.8.[ A M z d y y i x V M j 7 ; , 0 d d a q 5 5 6 0 q q 5 = 1 y b Z P A j 3 : 8 j u 1 O X , 7 r 7 1 ; ; 1 0 d M G P M q : ",
"7 l A { [ A n l i q 7 6 q l n b r - ; 0 d n b u 0 6 9 e y y q 5 1 6 i b A _ P x : O : 7 7 ; o X - 4 7 4 ; $ $ = 1 y x V C z 7 ; ",
"i d j l j j i q 6 , ; ; , y l l 0 & % 7 z V b i 6 9 e u e q e u i y u l M P J x : O % : % X     O - : % O O # % - 7 d b b i 5 % ",
"i t q 4 3 3 5 5 : $ # # $ 5 y u 5 # O 3 l M l y y e y e q q a d a q 0 y a n n t ; O $ % O X     X o o     O % ; - 4 t j l q : O ",
"0 q y 7 ; # % - % # O X o : 7 7 - O X : u d u y i y q q u h g y 1 , 5 0 6 5 4 > O O O % % $ o X O O X     o % : & 3 r j u 3 # X ",
"7 s M x 7 O X O O O X     # , 4 5 : - - 4 7 5 5 0 0 q i l z d 0 ; 1 q q ; O o o O $ & : : & # O O O X     X O % # - 7 r 4 & X   ",
"q n  ._ i %       X       . & 4 r u q , % % % # % : q l b l i 6 6 i b j :       O & 3 4 3 : % O o X         X X X % : : % X     ",
"r x L C t %                 O 3 i j u , o X       % r x z a y y d b B d ;     X O & 3 3 : % # o X                 X O o         ",
"> 6 8 7 : X                   % 7 7 4 % X         % r l i q u l z z d 7 #       X O % O O o X                                   ",
"o o o .                       X % % $ X X         O 3 7 3 , 6 y r 0 3 % X                                                       ",
"                                X .               X o O o O $ % % # O X                         X X                             ",
"                                                                                                o . X                           "
};
